<svg width="46" height="46" viewBox="0 0 46 46" fill="none" xmlns="http://www.w3.org/2000/svg">
<path d="M36.2083 0H7.79167C0 0 0 -8.96617e-07 0 7.99145V36.0085C0 44 0 44 7.79167 44H36.2083C44 44 44 44 44 36.0085V7.99145C44 1.07594e-05 44 2.81594e-06 36.2083 0ZM26.6842 12.9443H34.3255V14.8472H26.6842V12.9443ZM15.8217 31.5897H6.67883V12.2485H15.5668C18.799 12.2485 21.5967 13.185 21.5967 17.0321C21.5967 18.9764 20.713 19.9335 19.0227 20.759C21.34 21.434 22.4602 23.5306 22.4602 25.9581C22.462 29.888 19.25 31.5691 15.8217 31.5897ZM37.2918 25.1928H27.4505C27.4505 27.4285 28.6 28.7485 30.8 28.7485C31.9385 28.7485 33.4033 28.1243 33.7663 26.9246H37.0755C36.0543 30.1381 33.9423 31.6386 30.6827 31.6386C26.3817 31.6386 23.6995 28.647 23.6995 24.2846C23.6995 20.0745 26.5192 16.8723 30.6827 16.8723C34.9543 16.8723 37.3212 20.3265 37.3212 24.467C37.3212 24.7096 37.301 24.9615 37.2918 25.1928Z" fill="#CB351A"/>
<path d="M17.5613 17.4361C17.5613 15.6535 16.2157 15.2305 14.7215 15.2305H10.833V19.7433H15.0258C16.509 19.7433 17.5613 19.0776 17.5613 17.4361Z" fill="#CB351A"/>
<path d="M30.5543 19.7734C28.7576 19.7734 27.5586 20.9223 27.4413 22.7651H33.5499C33.3831 20.9016 32.4408 19.7734 30.5543 19.7734Z" fill="#CB351A"/>
<path d="M15.3416 22.957H10.8242V28.2859H15.2536C16.9439 28.2859 18.3189 27.671 18.3189 25.7268C18.3171 23.743 17.1676 22.9664 15.3416 22.957Z" fill="#CB351A"/>
<rect x="2.5" y="2.5" width="43" height="43" rx="4.5" stroke="black"/>
</svg>
