<svg width="20" height="21" viewBox="0 0 20 21" fill="none" xmlns="http://www.w3.org/2000/svg">
<mask id="mask0_387_98" style="mask-type:alpha" maskUnits="userSpaceOnUse" x="0" y="0" width="20" height="21">
<path d="M12.4994 6.24965C12.4994 4.59208 11.841 3.00244 10.6689 1.83056C9.49692 0.658471 7.90727 0 6.24978 0C4.59228 0 3.00256 0.658471 1.83068 1.83056C0.658593 3.00251 0.00012207 4.59215 0.00012207 6.24965C0.00012207 7.90715 0.658593 9.49687 1.83068 10.6687C3.00263 11.8408 4.59228 12.4993 6.24978 12.4993C7.90677 12.4975 9.49531 11.8383 10.6671 10.6668C11.8386 9.49512 12.4976 7.90676 12.4994 6.24965ZM4.38693 7.33471C4.55447 7.54466 4.52002 7.85044 4.3102 8.018C4.10039 8.18541 3.79448 8.15095 3.62706 7.94114L2.51914 6.55209C2.37712 6.37507 2.37712 6.12311 2.51914 5.94608L3.6272 4.55704C3.70741 4.45576 3.82459 4.39061 3.95294 4.37596C4.08128 4.36132 4.21018 4.39842 4.31117 4.47892C4.41217 4.55955 4.4769 4.67701 4.49127 4.80535C4.5055 4.9337 4.46797 5.06259 4.38706 5.1633L3.52089 6.24961L4.38693 7.33471ZM7.04306 4.96875L6.4068 7.74652C6.35728 7.96805 6.16031 8.12525 5.93333 8.12457C5.78573 8.12332 5.64651 8.05566 5.55459 7.94015C5.46252 7.82478 5.4275 7.67398 5.45931 7.52974L6.09585 4.75225C6.15961 4.49515 6.41755 4.33638 6.67576 4.3954C6.93398 4.45427 7.09706 4.70941 7.04306 4.96875ZM9.97986 6.55268L8.86845 7.94172C8.70076 8.15153 8.39483 8.18543 8.18501 8.01775C7.97534 7.85007 7.9413 7.54399 8.10898 7.33432L8.97766 6.24969L8.10898 5.1638C7.94395 4.95399 7.97897 4.65029 8.18738 4.48358C8.3958 4.31688 8.69979 4.34952 8.86814 4.55668L9.97913 5.94559C10.1223 6.12262 10.1226 6.37536 9.97986 6.55268Z" fill="black"/>
<path d="M14.3744 6.24963C13.9596 6.25005 13.5463 6.29595 13.1416 6.38676C13.0389 6.40978 12.9641 6.49837 12.9587 6.60341C12.8916 7.84721 12.4805 9.04791 11.7714 10.0719C11.0622 11.096 10.0826 11.903 8.94186 12.4031C8.84588 12.4452 8.78966 12.5461 8.80403 12.6499C9.00352 14.083 9.74763 15.3841 10.8817 16.2829C12.0157 17.1815 13.4524 17.6086 14.8933 17.4754C16.3341 17.342 17.668 16.6586 18.6181 15.5673C19.568 14.4758 20.0608 13.0603 19.994 11.6149C19.9272 10.1695 19.306 8.8055 18.2594 7.80619C17.2129 6.80705 15.8215 6.24961 14.3746 6.24976L14.3744 6.24963ZM12.309 12.9604C12.4621 13.1665 12.4209 13.4573 12.2167 13.6129C12.0125 13.7683 11.7212 13.7306 11.5633 13.5283L10.671 12.3565C10.5887 12.248 10.5579 12.1089 10.5866 11.9758C11.1555 11.5463 11.6572 11.0342 12.0747 10.4565C12.2223 10.4988 12.3392 10.6118 12.3863 10.7581C12.4333 10.9043 12.4043 11.0643 12.309 11.1847L11.633 12.0725L12.309 12.9604ZM14.3191 14.2603V14.2604C14.1295 14.2604 13.9585 14.1462 13.886 13.971C13.8134 13.7959 13.8536 13.5943 13.9877 13.4602C14.1217 13.3262 14.3233 13.286 14.4984 13.3585C14.6736 13.4311 14.7879 13.6021 14.7879 13.7917C14.7879 13.916 14.7385 14.0351 14.6505 14.123C14.5626 14.211 14.4434 14.2604 14.3191 14.2604L14.3191 14.2603ZM14.7879 11.7242V12.073C14.7879 12.3318 14.5779 12.5417 14.3191 12.5417C14.0602 12.5417 13.8504 12.3318 13.8504 12.073V11.627C13.8511 11.4599 13.9041 11.2972 14.002 11.1618C14.0998 11.0263 14.2377 10.9249 14.3961 10.8718C14.5496 10.8508 14.6276 10.5089 14.4102 10.442H14.4101C14.3388 10.4109 14.2563 10.4183 14.1916 10.4614C14.1267 10.5046 14.0884 10.5778 14.0896 10.6557C14.0896 10.9146 13.8798 11.1244 13.6209 11.1244C13.3621 11.1244 13.1522 10.9146 13.1522 10.6557C13.1578 10.279 13.3426 9.92761 13.6499 9.70958C13.9573 9.49168 14.3501 9.43351 14.7074 9.55292C15.7015 9.90168 15.7407 11.3264 14.7879 11.7244L14.7879 11.7242ZM18.0773 12.357L17.1824 13.5288C17.1072 13.6286 16.9955 13.6944 16.8717 13.7115C16.748 13.7285 16.6224 13.6954 16.5232 13.6195C16.4239 13.5438 16.359 13.4315 16.3429 13.3076C16.3268 13.1837 16.3609 13.0584 16.4373 12.9598L17.1149 12.0726L16.4368 11.1852C16.3602 11.0864 16.3261 10.9613 16.3423 10.8374C16.3584 10.7135 16.4234 10.6012 16.5226 10.5253C16.6219 10.4494 16.7473 10.4164 16.871 10.4335C16.9948 10.4506 17.1067 10.5163 17.1817 10.6161L18.0766 11.788H18.0768C18.2053 11.9558 18.2054 12.1889 18.0773 12.357L18.0773 12.357Z" fill="black"/>
<path d="M8.07501 12.7148C7.04059 13.004 5.95207 13.0419 4.90008 12.8254C3.84809 12.6089 2.86292 12.1442 2.02688 11.47C1.92812 11.3899 1.78345 11.4033 1.70087 11.5C0.715553 12.6548 0.289108 14.1853 0.535311 15.6834C0.781533 17.1812 1.67548 18.4947 2.9787 19.2732C4.28193 20.0518 5.86193 20.2165 7.2978 19.7234C8.73356 19.2304 9.87901 18.1296 10.4289 16.7146C10.4648 16.6227 10.4393 16.5182 10.3651 16.453C9.31249 15.5329 8.60802 14.2789 8.36975 12.9011C8.35831 12.8359 8.31967 12.7784 8.26359 12.7429C8.20737 12.7075 8.13901 12.6973 8.07498 12.7149L8.07501 12.7148ZM4.06233 15.5853V15.976C4.06247 16.0407 4.11479 16.093 4.17951 16.0931C4.43843 16.0931 4.64824 16.303 4.64824 16.5619C4.64824 16.8208 4.43843 17.0306 4.17951 17.0306C3.89995 17.0303 3.63182 16.919 3.43415 16.7213C3.23648 16.5236 3.12515 16.2555 3.12487 15.976V15.5853C3.12473 15.5206 3.07242 15.4683 3.00769 15.4682C2.74877 15.4682 2.53896 15.2583 2.53896 14.9994C2.53896 14.7405 2.74877 14.5307 3.00769 14.5307C3.07242 14.5306 3.12473 14.4782 3.12487 14.4135V14.0229C3.12515 13.7993 3.19644 13.5817 3.32841 13.4011C3.46038 13.2206 3.64633 13.0867 3.8592 13.0186C4.10333 13.1057 4.35193 13.1796 4.60399 13.24C4.67249 13.3849 4.66175 13.5549 4.57553 13.6901C4.48932 13.8252 4.33977 13.9067 4.17948 13.9057C4.11475 13.9059 4.06244 13.9582 4.0623 14.0229V14.4135C4.06258 14.6222 4.0005 14.8262 3.88415 14.9994C4.0005 15.1727 4.06258 15.3766 4.0623 15.5853L4.06233 15.5853ZM8.24179 14.5307C8.50071 14.5307 8.71052 14.7405 8.71052 14.9994C8.71052 15.2583 8.50071 15.4682 8.24179 15.4682C8.17706 15.4683 8.12475 15.5206 8.12461 15.5853V15.976C8.12433 16.2555 8.01301 16.5237 7.81533 16.7213C7.61765 16.919 7.34953 17.0303 7.06997 17.0306C6.81105 17.0306 6.60124 16.8208 6.60124 16.5619C6.60124 16.303 6.81105 16.0931 7.06997 16.0931C7.1347 16.093 7.18701 16.0407 7.18715 15.976V15.5853C7.18687 15.3766 7.24895 15.1727 7.3653 14.9994C7.24895 14.8262 7.18687 14.6222 7.18715 14.4135V14.0229C7.18701 13.9582 7.1347 13.9059 7.06997 13.9057C6.81105 13.9057 6.60124 13.6959 6.60124 13.437C6.60124 13.4317 6.60222 13.4267 6.60236 13.4214C7.00509 13.403 7.40561 13.3506 7.79955 13.2651C8.007 13.4627 8.12446 13.7365 8.1246 14.0229V14.4135C8.12474 14.4783 8.17705 14.5306 8.24178 14.5307L8.24179 14.5307Z" fill="black"/>
</mask>
<g mask="url(#mask0_387_98)">
<rect x="-6" y="-4" width="28" height="28" fill="#C93216"/>
</g>
</svg>
