<svg width="85" height="65" viewBox="0 0 85 65" fill="none" xmlns="http://www.w3.org/2000/svg">
<path d="M78.1504 5.06064C77.4111 4.70531 76.5963 4.51519 75.761 4.51519H9.23897C8.40373 4.51519 7.5889 4.70531 6.84956 5.06064L38.5806 37.0298C39.6194 38.0783 41.0294 38.6661 42.5 38.6661C43.9706 38.6661 45.3807 38.0783 46.4194 37.0298L78.1504 5.06064Z" fill="#FFE6BF"/>
<path d="M80.7632 7.69311L49.0337 39.6638C47.3002 41.4087 44.9498 42.3898 42.4997 42.3898C40.0496 42.3898 37.6992 41.4087 35.9656 39.6638L4.23619 7.69311C3.88353 8.43804 3.69483 9.25901 3.69483 10.1006V54.7836C3.69483 56.2654 4.27887 57.6861 5.31891 58.7327C6.3577 59.7806 7.76772 60.369 9.23833 60.369H75.7604C77.231 60.369 78.6411 59.7806 79.6798 58.7327C80.7198 57.686 81.3039 56.2654 81.3039 54.7836V10.1006C81.3039 9.25903 81.1158 8.43804 80.7632 7.69311Z" fill="#FFE6BF"/>
</svg>
