<svg width="65" height="89" viewBox="0 0 65 89" fill="none" xmlns="http://www.w3.org/2000/svg">
<g clip-path="url(#clip0_305_84)">
<path fill-rule="evenodd" clip-rule="evenodd" d="M2.94732 0.0187454H57.9649C59.6144 0.0187454 60.9124 1.32258 60.9124 2.98118V81.9747C60.9124 83.6326 59.6151 84.9372 57.9649 84.9372H2.94732C1.29779 84.9372 -0.000227928 83.6333 -0.000227928 81.9747V2.98118C-0.000227928 1.32332 1.29705 0.0187454 2.94732 0.0187454Z" fill="#C93216"/>
<path fill-rule="evenodd" clip-rule="evenodd" d="M4.94732 0.0440826C2.2431 0.0440826 0.0350342 2.26331 0.0350342 4.98118V83.9747C0.0350342 86.6926 2.2431 88.9118 4.94732 88.9118H59.9649C62.6691 88.9118 64.8771 86.6926 64.8771 83.9747V4.98118C64.8771 2.26331 62.6691 0.0440826 59.9649 0.0440826H4.94732ZM4.94732 2.01875H59.9649C61.6144 2.01875 62.9124 3.32258 62.9124 4.98118V83.9747C62.9124 85.6326 61.6151 86.9372 59.9649 86.9372H4.94732C3.29779 86.9372 1.99977 85.6333 1.99977 83.9747V4.98118C1.99977 3.32332 3.29705 2.01875 4.94732 2.01875Z" fill="#030D2B"/>
<path d="M20.667 24.7287C19.3466 24.7287 17.9461 24.9118 16.6987 25.4115C12.6691 27.0256 16.3261 31.6404 20.667 31.6404C25.0078 31.6404 28.6649 27.0256 24.6352 25.4115C23.3878 24.9118 21.9873 24.7287 20.667 24.7287Z" fill="#030D2B"/>
<path d="M20.667 15.8423C18.4966 15.8423 16.7375 17.6103 16.7375 19.7916C16.7375 21.9729 18.4966 23.7409 20.667 23.7409C22.8373 23.7409 24.5964 21.9729 24.5964 19.7916C24.5964 17.6103 22.8373 15.8423 20.667 15.8423Z" fill="#030D2B"/>
<path d="M35.4038 25.7164C34.861 25.7164 34.4211 26.1586 34.4211 26.7041C34.4211 27.2496 34.861 27.6918 35.4038 27.6918H52.1054C52.6482 27.6918 53.0881 27.2496 53.0881 26.7041C53.0881 26.1586 52.6482 25.7164 52.1054 25.7164H35.4038Z" fill="#030D2B"/>
<path d="M12.8073 39.5399C12.2645 39.5399 11.8246 39.9821 11.8246 40.5276C11.8246 41.0731 12.2645 41.5153 12.8073 41.5153H52.1056C52.6483 41.5153 53.0883 41.0731 53.0883 40.5276C53.0883 39.9821 52.6483 39.5399 52.1056 39.5399H12.8073Z" fill="#030D2B"/>
<path d="M12.8073 53.3634C12.2645 53.3634 11.8246 53.8056 11.8246 54.3511C11.8246 54.8966 12.2645 55.3388 12.8073 55.3388H52.1056C52.6483 55.3388 53.0883 54.8966 53.0883 54.3511C53.0883 53.8056 52.6483 53.3634 52.1056 53.3634H12.8073Z" fill="#030D2B"/>
<path d="M12.8073 67.1869C12.2645 67.1869 11.8246 67.6291 11.8246 68.1747C11.8246 68.7202 12.2645 69.1624 12.8073 69.1624H52.1056C52.6483 69.1624 53.0883 68.7202 53.0883 68.1747C53.0883 67.6291 52.6483 67.1869 52.1056 67.1869H12.8073Z" fill="#030D2B"/>
</g>
<defs>
<clipPath id="clip0_305_84">
<rect width="65" height="89" fill="white"/>
</clipPath>
</defs>
</svg>
