<svg width="46" height="46" viewBox="0 0 46 46" fill="none" xmlns="http://www.w3.org/2000/svg">
<path d="M37.3454 37.3772H30.8508V27.2066C30.8508 24.7811 30.8076 21.6602 27.4729 21.6602C24.0906 21.6602 23.5722 24.3017 23.5722 27.0317V37.3772H17.0798V16.4615H23.3152V19.319H23.4016C24.6738 17.1462 27.0366 15.8481 29.5528 15.941C36.1359 15.941 37.3476 20.2714 37.3476 25.9021L37.3454 37.3772ZM9.75158 13.6019C7.66951 13.6019 5.98269 11.9151 5.98269 9.83304C5.98269 7.75098 7.66951 6.06416 9.75158 6.06416C11.8336 6.06416 13.5205 7.75098 13.5205 9.83304C13.5205 11.9151 11.8336 13.6019 9.75158 13.6019ZM12.9978 37.3772H6.49673V16.4615H12.9978V37.3772ZM40.583 0.033949H3.23325C1.46868 0.0145106 0.0215982 1.42919 0 3.19376V40.6968C0.0215982 42.4636 1.46868 43.8782 3.23325 43.8588H40.583C42.3519 43.8804 43.8054 42.4657 43.8292 40.6968V3.1916C43.8033 1.42271 42.3497 0.00803106 40.583 0.0317891" fill="#CB351A"/>
<rect x="2.5" y="2.5" width="43" height="43" rx="4.5" stroke="black"/>
</svg>
