<svg width="69" height="85" viewBox="0 0 69 85" fill="none" xmlns="http://www.w3.org/2000/svg">
<g clip-path="url(#clip0_304_327)">
<path fill-rule="evenodd" clip-rule="evenodd" d="M28.4996 71.5993C32.2328 71.8663 35.9661 71.8663 39.4329 71.5993C35.1664 71.3324 31.6994 69.9994 27.4329 69.9994H25.566H21.0325L5.56557 68.6657L0.498733 48.1323L15.9656 49.199L19.6989 65.1988L22.6325 65.4658C24.4993 64.3992 27.4324 64.1322 31.4325 65.1988C32.2328 65.1988 33.2994 65.7322 34.0991 65.7322C35.9659 65.9991 38.6326 65.4652 40.7659 65.1988V55.5991C36.7656 54.5324 34.0991 51.8658 34.3661 48.6659C34.3661 47.8656 34.3661 47.3322 34.6331 46.799C32.7662 43.599 31.6995 40.3992 31.9665 37.7325C32.7668 31.3327 32.4999 33.9993 33.5665 32.1324C30.9 29.7321 29.033 26.7992 29.033 22.2656C29.033 17.9991 31.6995 13.7326 35.6998 11.0659C35.9668 3.59938 42.633 0.13253 49.8331 0.13253C57.0332 0.13253 64.4997 7.33262 64.4997 16.3988C64.4997 35.5986 68.7662 30.2657 68.7662 37.733C68.7662 41.9995 65.8326 46.266 61.5661 49.466C62.3664 52.666 61.0328 57.1995 59.6993 60.3993C59.1659 62.2662 57.8324 64.6659 55.966 66.7991C55.966 68.9324 56.233 70.5324 56.7663 71.866C58.8996 78.7992 56.7663 84.1323 46.8995 84.3993C33.5659 84.9326 10.899 84.9326 1.83351 79.3325C-0.299754 76.6659 -0.566789 69.4657 3.70037 67.5994L4.23369 69.9997L20.7679 71.5997H28.5015L28.4996 71.5993ZM55.433 46.266C62.633 46.266 60.7662 53.9995 59.4332 57.999C59.1663 58.7993 58.8999 59.599 58.6329 59.8659C56.7661 64.9327 53.5661 68.6659 51.1664 69.1992C49.0332 70.2659 45.5663 70.5328 41.2997 70.5328C36.2328 70.5328 32.4996 68.9328 27.4327 68.9328C25.0324 68.9328 22.3659 68.3995 22.3659 67.3329C22.3659 66.5326 23.6995 65.7329 27.1659 65.7329C30.3658 65.7329 32.766 66.5332 33.8327 66.7995C36.233 67.0665 38.8995 66.5325 41.5662 65.9992C43.9665 65.4659 46.0998 65.4659 47.966 65.1989C49.2996 61.1986 49.8329 58.5321 49.8329 52.1323C49.8329 48.9324 52.4994 46.2658 55.433 46.2658L55.433 46.266ZM58.3665 24.9318C58.0996 27.8653 56.7665 30.5319 54.6333 32.6653V36.3985C52.5 39.3321 49.5664 40.3988 45.8332 39.5985V36.3985C36.2334 35.8652 31.6999 23.0649 37.3002 15.0643C40.2337 20.6645 51.7003 22.7979 57.2992 17.9979C58.6328 17.1976 61.8327 21.1979 58.3658 24.9311L58.3665 24.9318Z" fill="#FFE6BF"/>
</g>
<defs>
<clipPath id="clip0_304_327">
<rect width="69" height="85" fill="white"/>
</clipPath>
</defs>
</svg>
