<svg width="65" height="65" viewBox="0 0 65 65" fill="none" xmlns="http://www.w3.org/2000/svg">
<path d="M14.3361 4.11976C13.893 3.83042 13.5218 3.45712 13.2466 3.02501C13.5187 2.82769 13.681 2.95006 13.8796 3.12035C14.7555 3.88876 15.7345 4.54859 16.5734 5.35063C16.75 5.58637 17.0103 5.75713 17.3091 5.8335C17.3733 5.74717 17.3964 5.64093 17.3743 5.53847C17.3522 5.436 17.2865 5.34637 17.1915 5.28944C15.9697 4.39865 15.0717 3.24932 13.8498 2.31772C13.7543 2.21763 13.6701 2.10806 13.5998 1.99138C13.5033 1.90884 13.4848 1.77413 13.5557 1.67168C13.6881 1.50188 13.8498 1.60385 13.9602 1.67168C14.5563 2.15455 15.1523 2.64406 15.7268 3.14072C16.0507 3.41963 16.3377 3.71893 16.7202 4.08607C16.8711 3.78108 16.7582 3.42011 16.4553 3.23607C15.719 2.61706 15.0567 1.97151 14.3653 1.33207C14.2477 1.23009 14.1296 1.12811 14.027 1.01949C13.9238 0.910867 13.8652 0.747695 14.027 0.638603L14.0264 0.638129C14.0891 0.59117 14.1692 0.568877 14.2493 0.576466C14.3293 0.584055 14.4033 0.621053 14.4536 0.678921C14.7406 0.950715 15.0132 1.23674 15.2925 1.51516C15.447 1.65794 15.5723 1.84815 15.8741 1.8211C16.0508 1.39279 15.6904 1.06645 15.58 0.692194C15.5358 0.549418 15.4696 0.392896 15.6611 0.325066C15.8526 0.257238 15.9702 0.392895 16.0436 0.52903C16.2053 0.855369 16.3526 1.20922 16.5292 1.58964C17.0519 1.12716 16.6396 0.433696 17.1992 0.0185928C17.7953 0.916023 16.8311 1.73899 17.1992 2.64351L17.1987 2.64399C17.4554 2.19954 17.6223 1.71573 17.6921 1.21623C17.7732 0.957722 17.6187 0.454461 18.0011 0.536037C18.3836 0.617622 18.1778 1.0393 18.1264 1.31821C18.0011 1.9984 17.8322 2.67809 17.707 3.35833H17.7065C17.5961 3.75345 17.6166 4.17038 17.7655 4.55507C18.2219 3.97686 18.1038 3.31091 18.3395 2.73935C18.5089 2.12034 18.7327 1.51559 19.0095 0.930668C19.51 1.18918 19.2523 1.52927 19.1491 1.78067C18.7625 2.79526 18.4981 3.8469 18.3616 4.91547C18.2958 5.24798 18.2958 5.58902 18.3616 5.92153C18.6193 5.06489 18.8549 4.20113 19.1342 3.35113C19.2959 2.85451 19.5167 2.37211 19.7082 1.88209C19.7595 1.75307 19.8627 1.67812 19.9952 1.71891L19.9957 1.71938C20.0563 1.73883 20.1045 1.78105 20.1297 1.83512C20.1548 1.88967 20.1543 1.95086 20.1281 2.00493C20.0249 2.33791 19.9146 2.68512 19.7821 2.9977C19.2482 4.39316 18.8832 5.83889 18.6932 7.3089C19.0685 7.3089 19.0613 7.04375 19.0977 6.86683C19.3113 5.80622 19.6645 4.77935 19.9885 3.75243C20.084 3.44649 20.1137 3.07224 20.7247 2.94322C20.2092 4.98334 19.2528 6.80574 19.2528 8.95442H19.2523C19.5182 8.74998 19.6938 8.46159 19.7457 8.14521C20.1923 6.87118 20.6462 5.60419 21.1071 4.34388C21.1513 4.20396 21.2078 4.06783 21.2761 3.93596C21.3515 3.87192 21.4609 3.85674 21.5533 3.89706C21.6452 3.93738 21.7017 4.02561 21.696 4.11952C21.6519 4.28933 21.5784 4.44586 21.5194 4.61614L19.819 9.1379C19.5823 9.54677 19.6229 10.0448 19.9222 10.4167C20.8422 8.66918 21.1512 6.79894 22.1888 5.20094C22.579 5.3845 22.5348 5.60887 22.4024 5.81283C21.4972 7.26803 21.122 8.90683 20.452 10.4438C20.2943 10.7663 20.2656 11.1301 20.3708 11.4707C20.8945 10.7786 21.3386 10.0377 21.6959 9.26031C22.1446 8.39655 22.5127 7.49243 22.9619 6.62871C23.1093 6.34316 23.2859 5.77871 23.6463 5.94851C24.0067 6.11832 23.6463 6.5604 23.4548 6.83266C22.5276 8.37662 21.7914 10.0154 20.9597 11.5997C20.776 11.9735 20.5403 12.4023 20.8935 12.8372C21.2098 12.8372 21.2688 12.6266 21.3278 12.4634C21.9901 10.7363 22.9984 9.15169 23.7716 7.46541H23.7711C23.825 7.36058 23.8892 7.26003 23.9626 7.16611C24.0237 7.09449 24.1274 7.06698 24.2203 7.09828C24.2845 7.10635 24.341 7.14145 24.3738 7.19315C24.4067 7.24485 24.4123 7.30747 24.3898 7.36343C24.3199 7.55648 24.2368 7.74479 24.1392 7.92788C23.5134 9.09758 22.8511 10.2602 22.2551 11.4436V11.4431C21.8864 12.1447 21.6385 12.895 21.5194 13.6667C22.005 13.6055 22.0271 13.245 22.1303 12.9865C22.8146 11.5175 23.6541 10.1101 24.419 8.67533V8.67581C24.5756 8.30346 24.8466 7.98187 25.1994 7.75086C25.398 7.97522 25.2584 8.12463 25.1994 8.27452C24.2794 9.86584 23.3666 11.4568 22.5867 13.116C22.3659 13.5922 22.1523 14.0817 21.9757 14.5779H21.9752C21.8248 14.9023 21.8412 15.2723 22.0194 15.5844C22.4953 15.0185 22.8814 14.3938 23.1679 13.7279C23.9041 12.368 24.5885 11.0081 25.302 9.64765C25.361 9.54567 25.4416 9.45033 25.5079 9.35547C25.5741 9.26013 25.802 8.86596 26.0818 9.03577C26.3616 9.20557 26.0818 9.4437 25.9566 9.62726L25.9571 9.62773C24.7932 11.4226 23.7602 13.2877 22.8659 15.2102C22.5424 15.6608 22.4336 16.2139 22.564 16.7404C22.8802 16.2168 23.1236 15.8292 23.3515 15.4346L25.9421 10.974C25.9873 10.8948 26.0361 10.8175 26.0895 10.743C26.2219 10.5528 26.3395 10.2535 26.6491 10.4167C26.9581 10.5799 26.7004 10.7905 26.5977 10.9541C26.1634 11.5997 25.7214 12.2799 25.3317 12.9596C24.5442 14.3195 23.6684 15.6386 22.9911 17.0399C22.7195 17.4786 22.7883 18.0293 23.16 18.3997C23.5892 17.9856 23.9224 17.4952 24.1391 16.9583C24.8753 15.4623 25.6109 13.9457 26.3472 12.4365V12.436C26.4386 12.2188 26.5679 12.0167 26.7297 11.8379C26.84 11.7293 26.9797 11.6135 27.1342 11.7089C27.2887 11.8042 27.2595 11.947 27.1342 12.0898C26.2363 13.3956 25.6623 14.8438 24.8819 16.2174L24.8824 16.2169C24.2669 17.2367 23.773 18.3148 23.4106 19.4333C23.7268 19.4945 23.7859 19.2768 23.8819 19.1136C24.8974 17.4407 25.9206 15.7681 26.9289 14.0885H26.9284C27.2133 13.737 27.4577 13.3585 27.6574 12.9596C27.6774 12.8875 27.7298 12.8263 27.8012 12.7912C27.8725 12.7561 27.9567 12.7509 28.0327 12.776C28.2607 12.8643 28.2242 13.0549 28.158 13.2248C28.0912 13.3547 28.0096 13.478 27.9151 13.5919C26.4433 15.5571 25.3318 17.7332 24.0293 19.7932L24.0288 19.7937C24.0113 19.817 23.9965 19.8421 23.9846 19.8687C23.9112 20.0522 23.6977 20.2832 23.9846 20.4061C24.2716 20.5285 24.3158 20.2159 24.419 20.0527C25.6409 18.1578 26.8674 16.2585 28.099 14.354C28.1801 14.2317 28.2314 14.0889 28.5035 14.0751C28.7171 14.3403 28.5035 14.5718 28.3783 14.8094C27.5686 16.0265 26.7518 17.2304 25.9566 18.4542C25.4853 19.1818 25.0586 19.9233 24.6172 20.6641H24.6177C24.5325 20.7865 24.4657 20.9193 24.419 21.0583C24.36 21.303 24.2496 21.6569 24.5294 21.7384C24.8092 21.82 24.9488 21.4871 25.0741 21.2826C26.222 19.4194 27.3628 17.5425 28.5041 15.6727C28.6437 15.4484 28.7618 15.0812 29.0858 15.2307C29.4097 15.3801 29.152 15.6998 29.0196 15.9109C28.4158 16.9036 27.636 17.7945 27.0619 18.801C26.4068 19.9569 25.7153 21.0925 25.0525 22.2485C24.861 22.5814 24.6552 22.9287 25.1778 23.3295L25.1773 23.3299C25.8575 22.0977 26.6122 20.9009 27.4367 19.7463C28.2535 18.6245 28.7981 17.3457 29.7181 16.2647C30.0123 16.5095 29.8434 16.6589 29.7695 16.8021C29.2319 17.8561 28.5404 18.8423 27.8925 19.8351C27.2446 20.8278 26.7667 21.6508 26.1629 22.5548C25.7876 23.1126 25.8169 23.7923 25.4267 24.3364C25.3312 24.4654 25.4709 24.6082 25.5222 24.7444C26.2584 26.5397 26.9278 28.3417 27.6563 30.1365C27.833 30.5648 28.3186 30.8983 28.1276 31.4424L28.1282 31.4419C28.1199 31.5301 28.1584 31.6164 28.2313 31.6733C28.9085 31.8161 28.7909 32.197 28.6138 32.6187C28.5769 32.6936 28.5625 32.8364 28.6138 32.8701C29.35 33.3871 28.8936 34.23 29.4163 34.9102C29.7623 35.3248 29.7253 35.9983 29.9168 36.5557C30.5401 38.4165 30.9908 40.3228 31.2634 42.2543C31.3297 42.5731 31.4128 42.8885 31.514 43.1992C32.0217 43.0223 32.0438 42.6893 31.9704 42.3288C31.897 41.9683 31.801 41.411 31.6762 40.9689H31.6757C31.0755 38.6494 31.0478 36.2347 31.5951 33.9037C31.8307 32.8431 31.3451 32.1425 30.8589 31.3604C29.983 30.0479 29.1221 28.7288 28.2605 27.4097C28.2251 27.3291 28.2005 27.2446 28.1871 27.1583C28.5198 27.2864 28.7842 27.5307 28.9233 27.838C29.7525 29.0713 30.5867 30.2998 31.4256 31.5236C31.4954 31.591 31.5776 31.646 31.6684 31.6873C31.8743 31.49 31.786 31.3135 31.6684 31.1499C30.7556 29.8985 30.1083 28.5045 29.1441 27.2669C28.4079 26.3083 27.7975 25.2268 27.0391 24.2887C26.9508 24.18 26.8112 24.0235 26.9729 23.9078C27.1346 23.792 27.3333 23.9419 27.4216 24.0847C28.4007 25.6623 29.7472 27.036 30.5789 28.7085C30.9547 29.4095 31.4327 30.0594 31.9995 30.6399C32.2136 30.3088 32.2136 29.8962 31.9995 29.5655C31.3778 28.4248 30.6796 27.3211 29.9096 26.2604C29.2617 25.1998 28.6435 24.1729 28.0176 23.1597C27.9293 23.0169 27.782 22.8675 28.0176 22.6156C28.9967 23.5539 29.2026 24.8663 30.0414 25.8663C30.8803 26.8657 31.5133 27.9946 32.2937 29.0282C32.441 28.348 31.8003 27.8314 31.7859 27.1854C32.1391 27.2262 32.1612 27.5459 32.3378 27.7361C32.5144 27.9263 32.5216 27.9946 32.7131 27.9196H32.7136C32.862 27.8537 32.9416 27.7014 32.9046 27.5525C32.8522 27.3196 32.7757 27.0919 32.6767 26.8728C32.1237 25.5152 31.4846 24.1894 30.7632 22.9012C30.602 22.6503 30.5039 22.369 30.4757 22.0787C31.2483 22.7589 31.4691 23.6563 31.9476 24.4451H31.9481C32.1031 24.7274 32.2335 25.0205 32.3377 25.3222C32.406 25.5641 32.6124 25.7524 32.8752 25.8117C32.9317 25.4972 32.8583 25.1742 32.6694 24.9076C32.3234 24.3228 32.213 23.6563 31.8377 23.0786V23.0782C31.7283 22.8628 31.7283 22.6138 31.8377 22.3985C32.1298 22.6593 32.3408 22.988 32.4481 23.3504C32.6838 23.9215 32.9636 24.4722 33.2285 25.0367C33.2798 25.1453 33.3609 25.2544 33.5006 25.2203H33.5011C33.5806 25.2027 33.6469 25.151 33.6787 25.0813C33.7105 25.0116 33.7049 24.9319 33.6628 24.8669C33.3419 24.2047 33.0714 23.5232 32.8532 22.8268C32.2494 21.3985 31.6611 19.9571 31.0722 18.5223C30.9033 18.1969 30.7965 17.8473 30.7554 17.4887C31.1749 17.4887 31.2339 17.7401 31.3001 17.992C31.9218 20.0605 32.7345 22.0764 33.7289 24.0169C33.7289 24.0169 33.788 24.0169 33.8835 24.0714C34.5016 23.3912 33.5153 22.7523 33.7582 22.0793C34.1776 21.991 34.1263 22.4805 34.5606 22.5963C34.1925 21.1548 33.6627 19.8357 33.3906 18.4483C33.1185 17.0608 32.6031 15.8167 32.4413 14.4496L32.4408 14.4492C32.774 14.6669 32.9845 15.0112 33.0148 15.3874C33.3208 17.3915 33.8362 19.3637 34.5534 21.2762C34.6197 21.4327 34.6566 21.6433 34.9066 21.6092C35.1567 21.575 35.1787 21.3848 35.2229 21.2217C35.2563 21.1107 35.2563 20.993 35.2229 20.882C34.4867 18.8083 34.1925 16.6457 33.6329 14.5307C33.5153 14.0953 33.2134 13.6669 33.4491 13.1708C33.8393 13.2254 33.7951 13.5584 33.8464 13.7557C34.1704 15.1156 34.4353 16.4754 34.7592 17.8359V17.8354C34.7957 18.371 34.9805 18.8885 35.2968 19.3381C35.4749 19.1123 35.5191 18.8187 35.4143 18.5564C35.1494 16.9854 34.8696 15.4078 34.5898 13.8373C34.5862 13.7804 34.5862 13.724 34.5898 13.6671C34.5898 13.3678 34.3249 12.8783 34.7223 12.8308C35.1196 12.7834 35.0021 13.2999 35.0462 13.5651C35.2157 14.6532 35.326 15.748 35.5026 16.8361C35.6248 17.5647 35.8271 18.28 36.1059 18.9711C36.4 17.8559 36.0104 16.7745 35.9364 15.6868C35.863 14.5987 35.8702 13.4565 35.7968 12.1915C36.15 12.4078 36.343 12.7882 36.2974 13.1776C36.2974 14.048 36.2974 14.9184 36.3343 15.7888C36.3246 16.405 36.4447 17.0168 36.6875 17.5908C36.8328 17.5761 36.9643 17.5059 37.051 17.3978C37.1378 17.2892 37.1717 17.1521 37.1439 17.0197C37.0485 15.952 37.0115 14.881 37.0336 13.8099C37.0336 13.3745 36.9745 12.9395 36.9232 12.5112C36.8354 12.1858 36.9355 11.841 37.1881 11.6C37.5854 13.0144 37.3205 14.3198 37.4602 15.748C37.8401 15.5417 38.0306 15.1314 37.9315 14.7348C37.8786 13.808 37.9474 12.8788 38.1373 11.9671C38.1543 11.8504 38.1943 11.7376 38.2554 11.6341C38.3068 11.5388 38.3807 11.4164 38.5352 11.471C38.6898 11.5255 38.6826 11.6408 38.6605 11.7565C38.5722 12.2735 38.469 12.7834 38.3956 13.3H38.3951C38.3792 13.567 38.3792 13.835 38.3951 14.1026C38.8777 13.5438 39.2832 12.9315 39.6021 12.2802C39.6755 12.1236 39.6904 11.9334 39.8598 11.8315V11.831C39.9404 11.7897 40.0348 11.7774 40.1247 11.7973C40.1683 11.8144 40.2017 11.8485 40.2161 11.8903C40.2299 11.932 40.2238 11.9775 40.1981 12.0145C39.8788 12.5942 39.6929 13.2288 39.6534 13.8782L41.1253 12.967C41.2798 12.8717 41.4564 12.7156 41.6109 12.9196C41.7655 13.1236 41.574 13.2526 41.4194 13.3617C40.6832 13.8853 39.9034 14.4223 39.1159 14.9123L39.1164 14.9118C38.8397 15.0551 38.6456 15.3037 38.5866 15.5916C39.5507 15.0001 40.4045 14.4627 41.2731 13.9461C41.5231 13.7896 41.8841 13.477 42.0976 13.7692C42.3112 14.0614 41.8327 14.225 41.6043 14.3744H41.6037C40.5379 14.9707 39.5173 15.6342 38.5496 16.36C38.2785 16.5009 38.0973 16.7542 38.0639 17.0402C38.719 16.6664 39.3223 16.36 39.8598 15.9929C40.596 15.483 41.4498 15.1291 42.2152 14.633C42.3919 14.5244 42.6275 14.3679 42.7892 14.633C42.9509 14.8982 42.7379 15.0205 42.5464 15.1429H42.5459C42.3343 15.2691 42.1156 15.3848 41.8913 15.4897C40.368 16.2211 38.9213 17.0815 37.5706 18.0601C37.3868 18.1962 37.129 18.291 37.129 18.6383C37.5387 18.4737 37.9228 18.2588 38.2698 17.9989C39.6092 17.1531 41.0169 16.4027 42.4796 15.7549C42.6203 15.6885 42.7722 15.6448 42.9288 15.6258C43.0223 15.6235 43.1106 15.6643 43.1645 15.7345C43.2091 15.8061 43.2091 15.8943 43.1645 15.9659C42.9658 16.113 42.7512 16.2406 42.5238 16.3468C40.6159 17.2215 38.7853 18.2332 37.0479 19.3726C36.5124 19.6856 36.1705 20.2164 36.1279 20.8008C38.336 19.3185 40.426 17.795 42.9283 16.8705C43.0459 16.8231 43.1711 16.8705 43.3626 17.0337C42.0012 17.7884 40.6396 18.516 39.3145 19.2844H39.315C37.974 20.0272 36.7548 20.9431 35.694 22.0042C36.1874 21.739 36.6951 21.5009 37.1659 21.2087C38.7923 20.1751 40.5076 19.2843 42.2294 18.3935C42.4825 18.273 42.7433 18.1663 43.0098 18.0738C43.1289 18.0164 43.2762 18.0482 43.3553 18.1488C43.4436 18.2982 43.3553 18.4277 43.2008 18.5092V18.5088C43.0652 18.5856 42.9251 18.6563 42.7813 18.7199C40.429 19.8478 38.1506 21.1034 35.9589 22.4804C35.6719 22.6639 35.4214 22.8883 35.1564 23.0923C34.8597 23.282 34.7077 23.6131 34.7662 23.9423C36.1349 23.3304 37.2171 22.3851 38.4976 21.7324H38.4981C39.7529 20.9573 41.0866 20.2971 42.4795 19.7601C42.5201 20.0286 42.3558 20.2876 42.0822 20.3858C39.5928 21.6329 37.1843 23.0131 34.8695 24.5201C34.5676 24.7103 34.1702 24.8398 34.1995 25.3634C34.5496 25.2486 34.8772 25.0831 35.1714 24.8739C37.3887 23.5486 39.7026 22.367 42.097 21.3378C42.2551 21.2429 42.4384 21.1888 42.6268 21.1813C42.6894 21.1955 42.749 21.2183 42.8034 21.2496C42.8768 21.4739 42.6858 21.5489 42.5236 21.6304C42.0451 21.8548 41.5595 22.0863 41.0517 22.3106V22.3102C38.6799 23.3793 36.4076 24.6278 34.2585 26.0436C33.7651 26.3699 33.7728 26.3766 33.6475 26.914C33.9196 27.0364 34.0521 26.8054 34.2143 26.7034V26.7029C36.4163 25.3364 38.7435 24.1505 41.1698 23.1601C41.4054 23.0581 41.6554 22.997 41.906 22.9154C42.156 22.8338 42.2443 22.7996 42.3254 22.9628C42.4065 23.126 42.2371 23.2621 42.0605 23.3437L40.9192 23.8403C38.725 24.7098 36.6298 25.778 34.6635 27.0293C34.6158 27.0696 34.5608 27.1018 34.5013 27.1246C33.11 27.478 33.0807 28.4845 33.0294 29.5793C33.7569 29.3312 34.449 29.0025 35.0902 28.6003C36.9671 27.662 38.9248 26.8799 40.89 26.1048C41.0656 26.0374 41.2479 25.9872 41.4347 25.9549C41.4938 25.9336 41.5605 25.9359 41.618 25.962C41.675 25.9876 41.7181 26.0346 41.7366 26.091C41.754 26.1797 41.7017 26.268 41.6113 26.3016C41.2894 26.4881 40.9496 26.6451 40.5953 26.7712C37.9051 27.764 35.3079 28.9602 32.8308 30.3477C32.7574 30.3885 32.7276 30.4904 32.7574 30.674L35.5174 29.491C36.4666 29.0831 37.4236 28.6818 38.3729 28.2673C39.3802 27.9599 40.3253 27.5003 41.1698 26.9069C41.3613 28.0832 41.538 29.2188 41.7294 30.3544C41.9209 31.4899 41.634 32.5984 42.0606 33.6865C42.554 33.6116 42.5391 33.299 42.5539 33.0063L42.5534 33.0068C42.689 31.6843 42.748 30.3567 42.73 29.0285C42.7223 27.7673 42.5791 26.5104 42.3029 25.2752C42.1997 24.9081 42.0452 24.8673 41.7069 25.0238C39.1456 26.1935 36.4225 27.0639 34.126 28.7094C33.9787 28.818 33.8098 28.9745 33.6404 28.7976C33.471 28.6207 33.6404 28.4371 33.8242 28.3147C34.4895 27.812 35.2123 27.3784 35.9809 27.0226L40.8309 24.8061C41.0003 24.7311 41.1692 24.6429 41.3463 24.5817C42.1488 24.3099 42.443 24.4456 42.6344 25.2073V25.2069C42.7443 25.6295 42.8177 26.0592 42.8552 26.4923C42.9507 27.6482 42.9949 28.8042 43.098 29.9535C43.1545 30.6769 43.1299 31.404 43.0241 32.1226C43.0241 32.4285 43.0241 32.7345 42.9651 33.0542C43.5319 33.0134 43.4656 32.66 43.4877 32.374C43.5539 31.4561 43.5539 30.5246 43.6643 29.6063L43.6648 29.6067C43.8589 27.69 43.9154 25.7638 43.8338 23.8403V23.1601C44.0576 23.3257 44.1875 23.5757 44.187 23.8403C44.2938 25.0214 44.2938 26.2087 44.187 27.3897C44.0694 28.9128 44.0396 30.4496 43.9811 31.9798C43.9811 32.1226 44.0253 32.2857 44.2311 32.272C44.437 32.2582 44.3928 32.1226 44.4005 32.0002C44.533 29.8107 44.9083 27.6345 45.0336 25.4383C45.0777 24.6837 44.9894 23.9356 45.0336 23.1876C45.0336 22.977 44.9381 22.7252 45.2836 22.4534C45.6881 23.9224 45.2836 25.3027 45.2836 26.683C45.2836 28.0632 44.9452 29.4027 44.9524 30.8106C45.3057 30.8106 45.2985 30.6066 45.3205 30.4368C45.4017 29.8657 45.4602 29.2875 45.5485 28.7164C45.9828 26.6284 46.2626 24.52 46.719 22.4804C46.7247 22.0958 46.948 21.7419 47.3079 21.5489C46.6128 24.5836 46.2087 27.6691 46.1009 30.7694C46.4911 30.1765 46.7041 29.4982 46.719 28.8042C46.9177 27.5463 47.2345 26.3154 47.4552 25.0713C47.5713 24.0609 47.773 23.0605 48.0585 22.0791C48.1688 21.8002 48.1319 21.2562 48.5149 21.3449C48.8974 21.4331 48.6181 21.8823 48.5149 22.1474V22.147C48.3675 22.6218 48.2592 23.1056 48.1909 23.5956C47.889 24.8943 47.6021 26.2001 47.352 27.5126C47.1826 28.3897 47.0799 29.2805 46.9619 30.1713C46.9619 30.3003 46.9028 30.4977 47.1092 30.5247C47.3151 30.5517 47.4403 30.4023 47.4403 30.1984C47.5497 29.1624 47.8172 28.146 48.2351 27.1793C48.9831 25.0894 49.6121 22.9649 50.1192 20.8142C50.1608 20.5486 50.2553 20.2929 50.399 20.0596C50.5094 19.9031 50.6347 19.7603 50.8477 19.849C51.0613 19.9372 51.0172 20.0937 50.936 20.2228H50.9366C50.5305 21.0988 50.2199 22.0101 50.0089 22.9425C49.2727 25.2681 48.537 27.6004 47.8449 29.9735V29.9739C47.9712 30.0114 48.1083 29.9991 48.2238 29.9398C48.3398 29.8805 48.4235 29.7795 48.4558 29.6609C49.0077 28.3688 49.5745 27.0768 50.0602 25.7642L50.0607 25.7647C50.6177 24.0789 51.2707 22.4221 52.0183 20.8008C52.1585 20.5404 52.2673 20.2667 52.3423 19.9845C52.4085 19.7331 52.4968 19.4746 52.9162 19.4746C52.9907 20.0817 52.8059 20.6917 52.4008 21.1746C51.5388 22.6664 50.8673 24.2454 50.3991 25.8804C49.9946 26.7893 49.6501 27.7203 49.3688 28.6681C49.3 28.8199 49.3164 28.993 49.4129 29.1306C49.7117 29.1282 49.9792 28.9588 50.0901 28.7022C50.6153 27.5283 51.1697 26.3652 51.7534 25.214C52.158 24.4318 52.6442 23.6837 53.0707 22.9088C53.523 22.1446 53.8619 21.3282 54.079 20.4812C54.1155 20.3094 54.175 20.143 54.2557 19.9845C54.3732 19.7602 54.4985 19.3997 54.8224 19.5221C55.1464 19.6444 54.8959 19.9575 54.8224 20.2023C53.9024 22.4325 52.6143 24.5068 51.5326 26.6693C51.2205 27.1247 51.0193 27.6374 50.9438 28.172C51.297 28.2602 51.4151 28.0562 51.4957 27.8798C52.828 25.0917 54.6972 22.535 55.8159 19.6587V19.6582C55.8734 19.5226 55.9586 19.3978 56.0664 19.2911C56.146 19.192 56.2866 19.1536 56.4124 19.1958C56.4879 19.2209 56.5469 19.2769 56.5711 19.3476C56.5957 19.4182 56.5834 19.4956 56.5372 19.5563C56.2502 20.107 55.9411 20.6444 55.6464 21.1884C54.6017 23.0469 53.5883 24.9124 52.6072 26.7846C52.5764 26.8277 52.5676 26.8813 52.583 26.9311C52.5984 26.9809 52.6369 27.0217 52.6878 27.0431C53.0533 26.665 53.3382 26.2267 53.5272 25.7509C54.4323 24.2891 55.2347 22.7727 56.2723 21.372C56.7138 20.7734 57.1482 20.1615 57.6267 19.5904C57.8695 19.3048 57.9727 18.9714 58.1786 18.6792C58.2556 18.5786 58.405 18.5516 58.5174 18.618C58.6129 18.6588 58.6206 18.7541 58.5985 18.8424H58.598C58.463 19.3191 58.2114 19.7611 57.8623 20.1345C56.3719 21.9773 55.0664 23.9415 53.9615 26.0029C53.8994 26.1651 53.8619 26.3345 53.8511 26.5062C54.2418 26.3525 54.5391 26.0456 54.6608 25.6694C55.3307 24.2688 56.4273 23.1194 57.2662 21.8273C57.7816 21.0247 58.3335 20.2497 58.8783 19.4609C58.9738 19.3181 59.077 19.1687 59.1945 19.0255V19.026C59.2664 18.9245 59.4112 18.8917 59.5257 18.951C59.596 18.988 59.6448 19.052 59.6592 19.1256C59.673 19.1991 59.6515 19.275 59.5991 19.3319C59.1945 19.8826 58.7746 20.4267 58.3849 20.9911C57.5383 22.2149 56.7066 23.4528 55.8826 24.6833H55.8821C55.8308 24.7914 55.7984 24.9062 55.7866 25.0234C55.7276 25.0779 55.6542 25.132 55.5952 25.1932C55.5361 25.2544 55.4037 25.3767 55.5438 25.4583C55.6835 25.5399 55.7497 25.4109 55.7866 25.3089C55.8123 25.2311 55.8323 25.1514 55.8457 25.0713C57.0085 23.7114 58.157 22.3035 59.327 20.9299C59.9307 20.2497 60.5632 19.5293 61.189 18.8358C61.2512 18.7698 61.323 18.7129 61.4021 18.6655C61.5936 18.5365 61.8144 18.4274 61.9838 18.6655C62.1532 18.9036 61.9838 18.9648 61.8072 19.0938C60.1951 20.6985 58.7186 22.4146 57.3909 24.2279C57.3396 24.2958 57.2656 24.3707 57.3909 24.4931C59.0219 22.7926 60.8153 21.2316 62.7492 19.8285C62.8155 19.7811 62.9259 19.7811 63.0655 19.9101C62.4474 20.9574 61.2548 21.5352 60.5191 22.5213C60.9827 22.2016 61.4391 21.8753 61.9247 21.5831V21.5826C62.3924 21.1951 62.9561 20.92 63.566 20.7805C62.9037 21.4607 62.0941 21.7799 61.6597 22.5758V22.5754C62.2738 22.4013 62.8739 22.1874 63.4556 21.9364C63.8016 21.8207 64.3165 21.4194 64.5152 21.9364C64.6626 22.3102 63.9998 22.324 63.6907 22.4739L63.6912 22.4734C63.0289 22.6916 62.3944 22.9766 61.7993 23.3234L62.977 23.0445C63.1978 22.9899 63.4037 22.9083 63.6172 22.8676C63.8308 22.8268 64.3534 22.6432 64.4489 22.9966C64.5444 23.35 64.0516 23.3367 63.7789 23.4045L63.7795 23.405C62.5268 23.6877 61.2972 24.0515 60.0995 24.4931C60.9091 24.3977 61.7116 24.2958 62.5212 24.2075H62.5206C62.7116 24.1905 62.9042 24.1905 63.0951 24.2075C63.2127 24.2075 63.36 24.2075 63.397 24.3641C63.434 24.5206 63.2938 24.643 63.147 24.6634C62.4847 24.772 61.8225 24.8607 61.1597 24.9423L61.1592 24.9418C59.8644 25.0699 58.5788 25.27 57.3103 25.5404C58.2744 25.5779 59.2407 25.5096 60.1879 25.3364C60.9241 25.2686 61.7188 25.2686 62.4843 25.2278C62.6461 25.2278 62.8155 25.2686 62.8155 25.4522C62.8155 25.6358 62.6902 25.6495 62.5655 25.6699C62.2194 25.7245 61.8734 25.7719 61.5279 25.7989C59.997 25.9213 58.4738 26.0233 56.95 26.1594L56.9495 26.1589C56.3437 26.149 55.7486 26.3074 55.2419 26.6148C55.8252 26.6456 56.4104 26.6456 56.9936 26.6148C58.5174 26.445 60.0555 26.5128 61.5864 26.4108C61.6814 26.4004 61.7779 26.4004 61.8734 26.4108C62.109 26.4516 62.4771 26.4108 62.4771 26.6897C62.4771 26.9686 62.0798 26.9207 61.859 26.9278C60.078 26.989 58.2894 27.0232 56.5007 27.0706V27.0701C55.7347 27.0872 54.9712 27.1622 54.2187 27.2945C53.676 27.3486 53.1837 27.6132 52.8648 28.0221C52.2878 28.2066 51.7677 28.5168 51.3483 28.9267C52.2631 28.9708 53.1801 28.9115 54.079 28.7497C55.7875 28.5301 57.5069 28.3916 59.2308 28.3352C59.39 28.3247 59.5502 28.3247 59.7093 28.3352C59.8346 28.3352 59.9814 28.3352 60.0035 28.5121C60.0256 28.689 59.8562 28.7635 59.7093 28.7839C59.3946 28.8237 59.0773 28.8465 58.7601 28.8517C56.0442 28.9399 53.3432 29.1169 50.6638 29.4024V29.4029C50.2875 29.3872 49.9302 29.5552 49.7217 29.8445C51.1936 29.9735 52.5773 29.5727 53.9834 29.484V29.4845C55.3783 29.2905 56.7911 29.2222 58.2004 29.2805C57.9725 29.5903 57.5813 29.762 57.1772 29.7292C54.7854 29.8786 52.3935 30.0418 50.0087 30.2595C49.4317 30.3008 48.869 30.4464 48.353 30.6878L51.1715 30.6404C52.187 30.593 53.2102 30.5114 54.2334 30.4976C55.2319 30.3871 56.2438 30.4421 57.2213 30.6608C57.0077 31.0346 56.6914 30.9805 56.3896 30.9805C54.1814 30.9805 51.9733 30.9805 49.7658 31.0483C49.0958 31.0483 48.4335 31.1233 47.7642 31.1911C47.2369 31.212 46.7528 31.4648 46.4612 31.8713C48.3012 31.9529 50.0016 31.6469 51.7091 31.674C53.4166 31.701 55.1171 31.4226 56.8246 31.7352C56.7291 32.1569 56.4344 32.0957 56.1988 32.1023H53.3211C51.437 32.1023 49.5528 32.1772 47.6687 32.2588C45.7845 32.3404 44.1211 32.7825 42.8551 34.1562C43.1128 34.3331 43.3998 34.2036 43.6719 34.1903C46.9253 34.0205 50.1781 33.8573 53.4386 33.9797V33.9792C53.8812 33.9503 54.3222 34.0527 54.6969 34.2714C54.4541 34.6319 54.0567 34.5162 53.74 34.4891H53.7405C50.1011 34.2909 46.4508 34.3682 42.8252 34.7201C42.279 34.7685 41.7548 34.944 41.3019 35.2305C42.6933 35.2305 43.9443 35.1897 45.1878 35.0811C47.5134 34.8634 49.8468 34.8363 52.1796 34.8297V34.8292C52.307 34.8188 52.4353 34.8188 52.5626 34.8292C52.6597 34.8325 52.7392 34.9027 52.7464 34.9924C52.7603 35.082 52.6956 35.1655 52.5991 35.1826C52.4127 35.2172 52.2228 35.2357 52.0328 35.2371C50.2077 35.2983 48.3528 35.305 46.5718 35.4207C44.7908 35.5364 43.0612 35.5023 41.3168 35.7129H41.3163C41.0426 35.6968 40.7813 35.8225 40.6391 36.0397H43.4874C46.137 36.0397 48.7866 36.1213 51.4362 36.2574V36.257C51.5635 36.247 51.6919 36.247 51.8192 36.257C51.9738 36.2977 52.1211 36.3656 52.099 36.5491C52.0769 36.7327 51.8783 36.7393 51.7309 36.7393C51.4147 36.7393 51.0907 36.7393 50.774 36.6644V36.6649C49.2872 36.4723 47.7855 36.395 46.2844 36.4339C44.8125 36.5017 43.414 36.3049 41.9714 36.4339C41.2352 36.4951 40.5729 36.5496 39.8737 36.5833H39.8742C39.5954 36.6293 39.3387 36.7526 39.138 36.9371C36.7548 38.5418 34.6519 40.4752 32.9038 42.6694C32.5182 43.1642 32.1029 43.6385 31.6604 44.0905C32.3124 44.2783 33.0045 44.3182 33.677 44.2062C35.3917 44.1043 37.0993 43.9069 38.8289 43.7438H38.9244C39.5892 43.6693 40.2618 43.6693 40.9265 43.7438C41.0811 44.349 41.2797 44.9543 41.3978 45.5662H41.3973C41.4117 45.9807 41.2448 46.383 40.9337 46.6813C40.4583 47.2961 40.1688 48.0166 40.0948 48.7693C39.8448 50.585 39.6236 52.3937 39.3586 54.2094V54.2089C39.1928 54.9579 39.0896 55.7168 39.0496 56.4805C39.0496 57.3713 38.8288 58.228 38.8509 59.1121C38.873 59.9962 38.8509 60.9074 38.9684 61.8319C38.991 62.5026 38.5598 63.1158 37.8867 63.3687C37.3425 63.537 36.7834 63.6623 36.2161 63.7424C33.8165 64.0484 31.4174 64.4226 29.0035 64.6062H29.003C26.8277 64.7817 24.6464 64.3353 22.7544 63.3279C22.392 63.1529 22.163 62.808 22.1584 62.4305C21.8786 59.9146 21.8714 57.3917 21.6948 54.8758V54.8753C21.6655 53.5391 21.4427 52.2129 21.032 50.9313C20.9612 50.7103 20.9196 50.4821 20.9073 50.2516C20.84 49.6079 20.5628 48.9985 20.112 48.5036C19.652 47.9491 19.2824 47.3354 19.0154 46.6812C18.8598 46.3397 18.8239 45.9617 18.9127 45.6002C19.0893 44.92 19.288 44.7436 20.0976 44.7773C21.9069 44.8598 23.7206 44.7849 25.5145 44.5529C25.5514 44.4576 25.6028 44.3897 25.5879 44.3556C24.9256 43.2134 24.999 41.928 24.7634 40.7108H24.7639C24.7382 40.3313 24.4635 40.005 24.0718 39.8883C23.4255 39.6393 22.8186 39.3096 22.2688 38.9088C21.989 38.7115 21.5325 38.5825 21.8272 38.093C21.9376 37.8752 21.6065 37.7733 21.437 37.6647C21.05 37.4531 20.7414 37.1377 20.554 36.7601C21.2902 36.8417 21.702 37.3924 22.3057 37.6647H22.3052C22.8637 38.0195 23.487 38.2775 24.1452 38.4264C23.4973 37.8686 22.8206 37.3383 22.202 36.7535H22.2025C21.4915 36.2289 20.8425 35.6365 20.2666 34.9856C22.0034 35.5771 22.9752 37.0935 24.5647 38.0323L24.5652 38.0318C24.596 37.7723 24.482 37.5167 24.2633 37.3516C22.946 36.3451 21.7754 35.1825 20.3846 34.2438V34.2442C20.1762 34.0943 19.9035 34.0441 19.6484 34.1081C18.3531 34.3121 17.102 34.6659 15.8211 34.9173C15.511 35.0416 15.1531 35.0055 14.879 34.822C15.6383 34.5279 16.431 34.3135 17.2417 34.183C18.0292 33.9521 18.8317 33.7751 19.6192 33.5778C19.6192 33.2989 19.4056 33.204 19.2732 33.2785C18.537 33.7002 17.7273 33.5574 16.9619 33.7002C15.5264 33.972 14.0623 34.1423 12.6196 34.3804C12.4933 34.4022 12.3655 34.4183 12.2371 34.4278C12.0723 34.4477 11.9214 34.3415 11.8983 34.1897C11.8613 33.9995 12.0159 33.9246 12.1853 33.9383C13.2377 33.9151 14.2846 33.7851 15.3062 33.5508C16.2852 33.4014 17.2566 33.2178 18.2499 33.0542C18.4122 33.0376 18.5564 32.9522 18.6401 32.8232C16.4546 32.8625 14.2809 33.1362 12.1632 33.639C11.9321 33.7325 11.6775 33.7657 11.4275 33.7344C11.295 33.6936 11.1775 33.6324 11.1775 33.51H11.1769C11.1882 33.3876 11.295 33.2918 11.4275 33.2856L16.1306 32.531C16.5722 32.4632 17.0214 32.4152 17.4552 32.3541C17.6169 32.3541 17.7863 32.2929 17.7714 32.1027C17.7565 31.9125 17.6169 31.9395 17.4916 31.8987L17.4921 31.8982C16.7647 31.7526 16.0115 31.7526 15.284 31.8982C13.6355 32.0614 11.9942 32.3062 10.3457 32.5035H10.3452C10.0269 32.5239 9.70705 32.5239 9.38876 32.5035C9.22703 32.5035 9.05043 32.4356 9.04273 32.2654C9.03554 32.0956 9.20445 32.041 9.37387 32.0273C10.3231 31.939 11.2801 31.8845 12.2294 31.7759C13.7013 31.6193 15.1219 31.5041 16.6457 31.2048C16.181 30.8272 15.5403 30.6939 14.9453 30.8509L10.1245 31.5719C9.54175 31.6805 8.94108 31.6805 8.35832 31.5719C8.99852 31.1365 9.77893 31.2456 10.4781 31.089C11.1774 30.9325 11.9942 30.858 12.7447 30.7423C13.4887 30.6356 14.2254 30.4928 14.9529 30.314C13.9774 30.1698 12.9841 30.1698 12.0086 30.314C10.5367 30.4364 9.06488 30.5995 7.59235 30.7357H7.59286C7.40137 30.7456 7.20987 30.7456 7.01889 30.7357C6.88695 30.7494 6.76425 30.6707 6.7319 30.5516C6.7319 30.3681 6.87925 30.3273 7.04815 30.3135C8.06364 30.2182 9.07964 30.1029 10.0952 30.028C11.4937 29.9326 12.8845 29.8036 14.3491 29.5996C14.1125 29.1889 13.598 28.9854 13.1129 29.1101C10.7944 29.593 8.40249 29.4365 6.06911 29.7903C6.03728 29.7941 6.00545 29.7941 5.97362 29.7903C5.78983 29.7903 5.54699 29.8449 5.51003 29.6134C5.47306 29.3824 5.69382 29.3416 5.88532 29.3212C6.58456 29.2463 7.28385 29.1718 7.98305 29.1106L12.1785 28.7705L12.178 28.7701C12.4609 28.8014 12.7402 28.6927 12.9142 28.4845C11.6733 28.4129 10.4284 28.4262 9.19005 28.5253C8.00771 28.5604 6.82841 28.6534 5.65686 28.8042C5.46639 28.8246 5.27386 28.8246 5.08289 28.8042C4.87702 28.8042 4.56743 28.8384 4.57514 28.5595C4.58232 28.2805 4.85494 28.3825 5.02385 28.3693C6.65028 28.2469 8.26948 28.0567 9.90366 28.0292C10.4509 28.0989 11.0074 28.0619 11.5378 27.9201C10.4233 27.8385 9.30356 27.8385 8.18904 27.9201C6.9451 27.9201 5.7011 27.995 4.45765 28.0358H4.26616C4.06748 28.0358 3.83183 28.0358 3.81745 27.791C3.80256 27.5463 4.0454 27.5463 4.23689 27.5396C5.13481 27.5396 6.0255 27.4989 6.92342 27.4922L6.92291 27.4917C7.78541 27.5235 8.64896 27.4941 9.50627 27.4035C9.71984 27.3694 10.1244 27.4785 10.0951 27.1521C10.0659 26.8258 9.74192 26.9482 9.47702 26.9686C8.55702 27.0501 7.62979 27.1047 6.70979 27.1659V27.1654C5.72561 27.1716 4.74243 27.2285 3.76552 27.3357C3.5843 27.3978 3.38099 27.3751 3.22082 27.274C3.17667 27.0226 3.36046 26.9747 3.55195 26.9273C4.11669 26.821 4.69117 26.7689 5.26723 26.7712C6.39977 26.7504 7.52924 26.6503 8.64534 26.4719C7.87268 26.1185 7.87268 26.1114 6.55536 26.1864C5.43668 26.2409 4.31082 26.2409 3.20656 26.3903C2.38976 26.499 2.04372 25.9824 1.58013 25.6219C1.35218 25.4384 1.58013 25.2548 1.83785 25.2002C2.09557 25.1457 2.40463 25.2956 2.78712 25.1049H0.961968H0.961454C0.513256 25.0489 0.167231 24.7126 0.129761 24.2957C0.129761 24.0851 0.313551 24.0101 0.519946 23.9897C0.725816 23.9694 0.83619 23.9897 0.998425 23.9897H1.46201C1.49898 23.4253 0.924497 23.1739 0.667278 22.6707C1.60936 22.7181 2.03597 23.5207 2.87541 23.6976C2.87541 23.283 2.49293 23.201 2.28654 23.0174C2.08067 22.8338 1.71257 22.6365 1.93333 22.4055C2.15409 22.1745 2.419 22.5075 2.61049 22.664C3.02274 22.9904 3.40522 23.3442 3.86162 23.6502C3.86162 23.0383 3.12541 22.6982 3.27276 21.991C3.91296 22.2699 4.00897 22.8884 4.38425 23.2555H4.38373C4.76878 23.6459 5.18206 24.0116 5.6205 24.3503C5.2601 23.8404 4.88429 23.3305 4.54597 22.8068C4.43559 22.6502 4.15579 22.4667 4.4207 22.2898C4.68562 22.1128 4.84015 22.378 4.93615 22.5483C5.30733 23.1241 5.71035 23.6829 6.14314 24.2212C6.30177 24.5418 6.58157 24.798 6.93069 24.9417C7.15864 24.7785 6.99691 24.6424 6.93069 24.4996C6.57747 23.9214 6.19448 23.337 5.87104 22.7521H5.87053C5.66569 22.5235 5.64516 22.1991 5.81919 21.9496C6.68786 22.8878 6.96714 24.1121 7.99039 25.0574C7.84305 24.0917 7.12173 23.4457 7.19566 22.5619C8.15261 23.6297 8.38775 25.0849 9.55112 26.2679H9.55061C9.40172 25.6267 9.1671 25.0057 8.85137 24.4181C8.58081 23.9224 8.43706 23.3755 8.43193 22.8201C9.27851 24.0372 9.43304 25.5399 10.5297 26.628C10.5738 26.6754 10.7063 26.628 10.8901 26.6825C10.5661 25.4858 9.94079 24.4115 9.71234 23.1193H9.71286C9.98598 23.1924 10.1893 23.4039 10.235 23.6634C10.6323 24.6766 11.0297 25.7035 11.4127 26.6963C11.5749 27.1379 11.9636 27.4766 12.4508 27.6009C12.0976 26.139 11.5529 24.8403 11.1996 23.4666C11.6412 23.4666 11.634 23.6639 11.6853 23.82L12.8625 27.424C12.9139 27.7954 13.206 28.1004 13.5987 28.1924C13.2968 26.8799 13.0099 25.6424 12.7157 24.4049C12.7157 24.2688 12.6274 24.126 12.6125 23.9903V23.9898C12.6166 23.9054 12.6628 23.8276 12.7378 23.7792C12.8774 23.7318 12.9806 23.8134 13.0176 23.9424C13.0545 24.0714 13.0838 24.2213 13.1207 24.3641C13.4519 25.5404 13.5623 26.7713 14.0115 27.9206L14.011 27.9202C14.1552 28.5847 14.6219 29.1516 15.277 29.457C14.8504 27.58 14.5926 25.8188 14.0259 24.0714C14.5192 24.0714 14.4894 24.2891 14.5485 24.4451C15.0049 25.751 15.0932 27.1241 15.4243 28.4503C15.5496 28.9469 16.006 29.3615 15.851 29.9259C15.851 29.9938 16.0497 30.1299 16.1821 30.2048C16.2689 30.2395 16.3675 30.2395 16.4542 30.2048C16.6087 30.164 16.5939 30.0417 16.5646 29.9193C16.3105 29.0527 16.119 28.1713 15.9906 27.281C15.8962 26.6482 15.7611 26.0217 15.5861 25.4041C15.449 25.0924 15.449 24.7433 15.5861 24.4317C15.8849 24.7775 16.0599 25.2006 16.0866 25.6422C16.3295 26.7436 16.5651 27.8592 16.7417 28.9743C16.8521 29.6545 17.2274 30.273 17.3157 30.9736C17.3157 31.2933 17.8234 31.3474 18.3019 31.6538L16.83 25.738C17.3013 25.9011 17.3234 26.2275 17.3896 26.4793C17.6104 27.2411 17.8091 28.0024 17.9564 28.7708L17.9559 28.7699C18.1212 29.6682 18.3877 30.5477 18.7507 31.3948C18.8343 31.5793 18.8574 31.7828 18.8169 31.9796C18.8169 32.177 18.9201 32.2993 19.2882 32.3264C19.0084 30.7961 18.552 29.3073 18.7507 27.7638C19.0376 28.0631 18.8831 28.444 18.9493 28.7362C19.1922 29.7835 19.4427 30.8304 19.6855 31.8848C19.6855 32.021 19.7297 32.1841 19.877 32.2657C21.4008 33.1361 22.5636 34.3874 23.9837 35.3736C24.0791 35.4485 24.1823 35.5163 24.4031 35.3736C22.8572 34.2176 21.562 32.8644 20.1343 31.6472C20.3622 31.3616 20.5168 31.5044 20.6497 31.6472C21.386 32.2866 22.1216 32.9117 22.8579 33.5781C23.1521 33.857 23.5058 34.0472 23.8148 34.2991C23.918 34.3873 24.0648 34.5301 24.2122 34.3603C24.3595 34.1905 24.2122 34.0885 24.1018 33.9932L24.1013 33.9922C23.4483 33.5269 22.8512 32.998 22.3203 32.4146C21.5841 31.7344 20.9069 31.0002 20.2083 30.2863C20.0743 30.1967 20.0132 30.0402 20.0537 29.8922C20.2817 29.7356 20.3628 29.8922 20.4952 30.0487C21.2315 30.783 22.0261 31.5106 22.8065 32.2382H22.806C22.9051 32.3103 23.014 32.3696 23.13 32.4146C23.2255 32.666 23.2917 32.9521 23.7188 32.9179C23.7188 32.5778 23.4688 32.4488 23.1741 32.3672C22.2983 31.3744 21.4297 30.375 20.5537 29.3889C20.355 29.1646 20.0239 28.9743 20.4803 28.7087C20.6348 28.6205 20.4803 28.5114 20.4803 28.4232C20.4803 28.3349 20.1492 28.1376 20.2375 27.743C21.4665 28.62 22.1951 29.8784 23.4688 30.6055V30.606C23.0324 29.8532 22.4599 29.1745 21.7756 28.6C21.2237 28.0356 20.6569 27.4849 20.105 26.9204C19.9797 26.798 19.8329 26.6282 20.0536 26.485C20.2744 26.3422 20.3478 26.485 20.4582 26.6344L22.4307 28.6745C22.5852 28.8377 22.7177 29.0554 23.1007 28.9738C22.8106 28.4691 22.4358 28.01 21.9892 27.6139C21.4445 27.0495 20.8777 26.4988 20.3108 25.9481C20.0459 25.6895 20.0901 25.4718 20.3108 25.173C20.5316 24.8737 20.6199 24.8263 20.8997 25.0032C21.025 25.0848 21.1056 25.2209 21.275 25.2072C21.4444 25.1934 21.3191 24.9828 21.3561 24.8808C21.4444 24.609 21.6431 24.5545 21.8418 24.7584V24.758C22.0045 24.9733 22.1477 25.2005 22.2689 25.4382C22.7104 25.2612 22.4748 24.8329 22.7546 24.5744C23.1961 25.0231 22.7546 25.5264 22.9163 26.0704L23.4461 25.1251C23.6078 25.9888 23.2546 26.8047 23.3208 27.7771C23.998 27.1377 23.615 26.2607 24.2999 25.6212C24.1967 26.8995 23.748 28.0015 23.9025 29.1706C24.44 28.4088 24.5135 27.4706 25.0802 26.7159C25.1393 28.0758 24.3882 29.2592 24.1602 30.6533C24.5253 30.4902 24.7943 30.1866 24.8965 29.8237C25.1588 29.0496 25.4961 28.2984 25.9048 27.5801C25.9925 27.4293 25.9925 27.2481 25.9048 27.0972C25.5515 26.2268 25.2127 25.3564 24.8893 24.4793L24.8887 24.4789C24.745 24.0913 24.4252 23.7811 24.0129 23.6289C21.8048 22.6499 19.5381 21.7861 17.2788 20.9091C16.6088 20.644 15.9465 20.3447 15.2992 20.0321C15.1375 19.9571 14.8356 19.8281 15.0415 19.5834C15.2473 19.3386 15.3875 19.5834 15.5492 19.6649C17.919 20.9504 20.5836 21.6367 23.0488 22.732V22.7315C23.1622 22.7576 23.2783 22.7714 23.3948 22.7723C23.2254 22.4664 22.9384 22.4189 22.7028 22.3236C20.7451 21.5348 18.824 20.6985 16.925 19.794C16.0492 19.3723 15.1954 18.9302 14.3196 18.5157C14.1502 18.4408 13.9073 18.3592 14.0398 18.1552C14.1722 17.9513 14.3781 18.0466 14.5552 18.1552C15.2545 18.5086 15.9538 18.8354 16.6452 19.2092C18.3897 20.1204 20.2518 20.8209 22.0697 21.6027C22.2242 21.6705 22.3859 21.8133 22.6513 21.7046C22.4753 21.4428 22.2196 21.2346 21.9157 21.1065L16.5794 18.4C15.8432 18.0395 15.1075 17.6586 14.4232 17.2782C14.0648 17.1032 13.7527 16.857 13.5104 16.5572C13.8487 16.3599 14.033 16.5914 14.2466 16.7C16.6384 17.9783 19.1115 19.1343 21.5552 20.3381H21.5547C21.8124 20.5122 22.1138 20.6222 22.4305 20.6578C22.6657 21.0316 23.0959 21.2635 23.5641 21.2697C23.3218 20.9068 22.8921 20.6877 22.4305 20.6915C22.0039 19.9705 21.1645 19.7395 20.4729 19.3316C18.3017 18.1211 16.0566 16.9789 13.8492 15.8092H13.8486C13.4718 15.6422 13.1997 15.3235 13.1129 14.9454C13.9914 15.3496 14.842 15.804 15.6594 16.3058C16.4983 16.7204 17.3079 17.1829 18.1323 17.6321C18.9568 18.0808 19.7003 18.5295 20.5171 18.9175V18.917C21.3144 19.3942 22.1425 19.8254 22.9973 20.2087C23.0635 19.8757 22.7837 19.8415 22.6292 19.7324V19.7329C20.7415 18.4855 18.7448 17.3845 16.6605 16.4416C15.6096 15.8937 14.6105 15.2657 13.6721 14.5647C13.4128 14.4219 13.2537 14.1639 13.2526 13.8849C13.9072 14.1842 14.5181 14.559 15.0705 15.0001C15.6964 15.3468 16.2847 15.7547 16.9105 16.0948C17.5364 16.4349 18.213 16.7139 18.8537 17.0468C19.4939 17.3798 20.112 17.727 20.7379 18.0666V18.0671C21.3057 18.4779 21.9289 18.8184 22.5927 19.0803C22.7031 18.5158 22.2616 18.3119 21.9084 18.1079C20.6059 17.3257 19.2736 16.5848 17.9563 15.8164C16.4983 15.0001 15.0705 14.1231 13.5987 13.2659C13.3779 13.1369 12.9364 13.0145 13.1351 12.7423C13.3338 12.4705 13.6356 12.7764 13.8713 12.9121L21.2313 17.1825L21.2308 17.183C21.3422 17.2242 21.4582 17.2536 21.5768 17.2712C21.4418 16.9619 21.1758 16.7162 20.8411 16.5915C19.5972 15.8368 18.3753 15.048 17.0507 14.3948C15.6799 13.6487 14.378 12.8006 13.1571 11.8585C13.0396 11.777 12.8994 11.6816 12.9364 11.5052C13.172 11.3012 13.3337 11.5052 13.5032 11.6005C14.7543 12.505 16.0865 13.2938 17.4188 14.096L17.4183 14.0955C17.9379 14.4147 18.4872 14.6903 19.0596 14.9185C18.7557 14.4996 18.3593 14.1453 17.8967 13.8783L13.3409 10.8316C13.135 10.6888 12.9287 10.5527 12.7449 10.3962C12.5611 10.2396 12.2884 10.1514 12.5241 9.92706C12.7597 9.7027 12.9286 9.92706 13.0981 10.0494L20.0016 14.8573C20.2296 15.0138 20.4729 15.1566 20.7378 15.2927C20.8482 15.3539 20.9878 15.3947 21.0838 15.2927C21.1793 15.1907 21.0838 15.0276 20.9735 14.9322C20.0607 14.2928 19.1776 13.6264 18.2504 13.0145H18.2499C16.5768 11.9008 14.9811 10.6902 13.4732 9.39009C13.2083 9.16573 12.6487 8.88019 12.9285 8.60792C13.2083 8.33613 13.5323 8.82565 13.7751 9.03624C15.5505 10.5432 17.4233 11.9491 19.3834 13.2454C19.6997 13.4494 19.943 13.7961 20.4431 13.844C20.4944 13.4565 20.2074 13.3066 19.9867 13.1164H19.9872C18.9255 12.2342 17.8073 11.4122 16.6384 10.6547C15.4458 9.79806 14.3348 8.88027 13.2304 7.9619C13.039 7.80537 12.6267 7.60852 12.8623 7.36329C13.098 7.11854 13.3701 7.45863 13.5395 7.61469C15.4237 9.35597 17.6466 10.7159 19.7665 12.2802C19.9723 11.9064 19.7665 11.7295 19.5015 11.5459C18.3536 10.6618 17.2051 9.78475 16.0793 8.88727C15.1223 8.1255 14.1879 7.34379 13.2458 6.56167L13.2453 6.5612C13.1334 6.46348 13.0343 6.35392 12.9506 6.23486C12.9219 6.18363 12.9219 6.12291 12.9506 6.07168C12.9727 6.03042 13.0122 5.99958 13.06 5.98678C13.1072 5.97349 13.1585 5.97966 13.2011 6.00338C13.3849 6.11627 13.5595 6.24149 13.7238 6.37762C15.1444 7.5198 16.5423 8.71706 18.0147 9.87294C18.4095 10.2244 18.8674 10.51 19.3685 10.7158C19.1698 10.1106 19.0302 9.79088 18.4192 9.53285C17.605 9.09456 16.8615 8.55193 16.2111 7.92112C15.2398 7.13943 14.3347 6.30977 13.4368 5.48017C13.3485 5.39858 13.253 5.32363 13.1647 5.23541H13.1642C13.0687 5.1543 13.0528 5.02055 13.1272 4.92236C13.1693 4.87588 13.2314 4.84931 13.2966 4.84931C13.3618 4.84931 13.424 4.87588 13.4661 4.92236C13.6868 5.08554 13.8927 5.26246 14.0991 5.44602C15.2486 6.53509 16.457 7.57005 17.7201 8.5467C17.9562 8.78102 18.2524 8.95652 18.581 9.0566C18.6041 8.59081 18.35 8.15016 17.9187 7.90778C16.4078 6.83389 14.9651 5.68078 13.5985 4.45326C13.4661 4.34464 13.2161 4.24929 13.3187 4.05197C13.4219 3.85465 13.6792 3.90255 13.8927 3.97703C14.1063 4.05197 14.2018 4.05197 14.3491 4.09276C14.3491 4.4191 14.5627 4.60978 14.8055 4.81375C15.4606 5.35781 16.108 5.91514 16.7487 6.47962C17.0167 6.77561 17.3761 6.98905 17.7791 7.09152C16.778 5.96972 15.4826 5.11976 14.3347 4.11979L14.3361 4.11976ZM41.2881 32.6798C41.1408 32.8292 40.9719 32.9791 41.1336 33.1968C41.1336 33.1968 41.266 33.258 41.2881 33.2376C41.5017 33.054 41.3323 32.8704 41.2881 32.6869C41.6634 31.5717 41.1777 30.477 41.1777 29.3685V29.368C41.1865 29.2153 41.0633 29.0829 40.8979 29.0687C40.7075 29.0393 40.516 29.1133 40.4051 29.2594C40.3424 29.3912 40.3424 29.5416 40.4051 29.6739C40.5889 30.5173 40.7655 31.3602 40.9498 32.2035C40.9816 32.4004 41.1053 32.5745 41.2881 32.6798L41.2881 32.6798ZM21.2545 48.7618C21.658 50.346 21.9727 51.9483 22.1965 53.5624C22.3141 54.9223 22.4245 56.2211 22.579 57.5472C22.6601 58.2749 22.6966 58.2749 23.4179 58.3427L23.4184 58.3432C24.6911 58.4765 25.9731 58.522 27.253 58.4788C29.4611 58.3498 31.7134 58.2274 33.943 58.0505H33.9435C35.2162 57.9585 36.4775 57.7607 37.7118 57.459C38.1091 57.357 38.3007 57.2076 38.3448 56.8267C38.6467 54.3721 38.9557 51.9307 39.2648 49.4827C39.331 48.9453 39.3973 48.4084 39.4635 47.9052C33.3768 48.2656 27.3413 48.5237 21.2541 48.7618L21.2545 48.7618ZM32.449 42.0434C32.7011 42.0173 32.9208 41.8736 33.0307 41.6625C34.7587 39.602 36.799 37.781 39.0882 36.2565C39.5236 36.0051 39.7859 35.5616 39.7798 35.0873C39.7382 33.5196 39.4687 31.9642 38.9778 30.463C38.7643 29.8578 38.6981 29.8236 38.0286 30.0821C36.9099 30.5104 35.8204 30.9321 34.709 31.442C33.982 31.7442 33.2853 32.1037 32.6261 32.5168C32.2672 32.7161 32.0346 33.0628 32.0003 33.4484C31.6912 35.194 31.5952 36.9661 31.7133 38.732C31.724 38.8473 31.724 38.9635 31.7133 39.0788C31.7451 40.1019 31.9951 41.1094 32.449 42.0433L32.449 42.0434ZM28.6217 64.0887C29.7917 64.1433 30.8883 63.769 32.0367 63.6808H32.0372C33.7545 63.5632 35.4611 63.336 37.1449 63.0011C37.4946 62.9826 37.8185 62.827 38.0367 62.5737C38.2544 62.3209 38.3448 61.9936 38.2857 61.6749C38.2965 61.5027 38.2965 61.3305 38.2857 61.1583C38.087 59.6077 38.028 59.567 36.3281 59.907C35.8773 60.0536 35.4106 60.1565 34.9368 60.2129C32.5741 60.2129 30.2412 60.6005 27.8859 60.6071H23.6684C22.7776 60.573 22.7776 60.5322 22.8074 61.3347C22.8074 61.532 22.8074 61.736 22.8515 61.94C22.8936 62.5035 23.271 62.9987 23.8306 63.2254C25.3492 63.8065 26.9782 64.1001 28.6221 64.0892L28.6217 64.0887ZM33.5826 46.28C35.2701 46.2615 36.954 46.141 38.6241 45.9195C39.1642 45.8692 39.6899 45.7312 40.177 45.5116C40.3357 45.4438 40.4558 45.3166 40.5076 45.1625C40.5595 45.0083 40.5384 44.8414 40.4496 44.7024C40.3357 44.3485 39.9373 44.1431 39.5517 44.2399C38.5434 44.4235 37.5059 44.2944 36.5047 44.4372C34.199 44.7043 31.88 44.8565 29.5564 44.8926C27.7754 44.9604 25.9941 45.042 24.2131 45.1715H24.2136C23.1 45.2621 21.9819 45.2981 20.8648 45.2801C20.5788 45.2502 20.2893 45.2687 20.011 45.3347C19.8606 45.3807 19.7523 45.5021 19.7322 45.6468C19.7117 45.7919 19.7831 45.9347 19.915 46.0144C20.2133 46.1875 20.5424 46.3094 20.8869 46.3749C21.7966 46.5243 22.7161 46.6149 23.6391 46.6471C26.9658 46.7558 30.2634 46.3478 33.5825 46.28L33.5826 46.28ZM29.0565 36.1683C28.8526 36.2067 28.6765 36.3229 28.5703 36.488C28.0107 37.1682 27.4588 37.8479 26.9069 38.5281C26.355 39.2083 26.3843 39.1741 26.9069 39.6978V39.6973C27.7699 40.6607 28.5411 41.6914 29.211 42.7781C29.4831 43.1656 29.7336 43.5669 30.0206 43.9478C30.1603 44.1247 30.2927 44.3761 30.6167 44.2741C30.9406 44.1721 30.8153 43.934 30.8153 43.7438C30.8153 43.5536 30.7712 43.1656 30.7419 42.8801C30.5787 41.3266 30.2732 39.7889 29.8291 38.2829C29.7193 37.5392 29.4569 36.8215 29.0565 36.1683L29.0565 36.1683ZM29.5277 44.3282H29.5272C29.1134 43.4791 28.6206 42.6647 28.0554 41.8939C27.5764 41.1691 27.027 40.4865 26.4141 39.8538C26.1933 39.5749 25.9356 39.582 25.7297 39.8538C25.6224 39.998 25.5285 40.1502 25.4499 40.3096C25.0377 41.153 25.6117 43.6621 26.3479 44.247V44.2466C26.4608 44.3504 26.6153 44.4074 26.7745 44.4031L29.5277 44.3282ZM32.5748 31.8902L32.5743 31.8907C34.3305 31.0075 36.1366 30.2106 37.9839 29.5039C38.2288 29.4361 38.4351 29.2824 38.5578 29.0756C38.6682 28.8579 38.8228 28.7493 39.0805 28.8987C39.2057 28.9736 39.3233 28.9803 39.3895 28.8579C39.4501 28.764 39.4342 28.6444 39.3505 28.5676C39.2674 28.4903 39.138 28.4756 39.0363 28.5315C38.9188 28.5709 38.8033 28.6164 38.6903 28.6672C37.8293 29.0277 36.9535 29.3474 36.0997 29.762C34.9959 30.2652 33.8474 30.7002 32.7879 31.285C32.5158 31.4757 32.5229 31.6256 32.6041 31.9178L32.5748 31.8902ZM28.4676 34.7192C27.9363 35.3216 27.445 35.9529 26.9958 36.6098C26.6426 37.0927 26.2596 37.5684 25.9433 38.0584L25.9428 38.058C25.8622 38.1543 25.8622 38.2885 25.9428 38.3848C26.1045 38.5209 26.237 38.3848 26.3402 38.2966L26.3407 38.2961C27.1806 37.4541 27.9369 36.5439 28.6001 35.5763C28.7233 35.453 28.7803 35.2851 28.7546 35.1186C28.7289 34.9526 28.6232 34.806 28.4676 34.7192L28.4676 34.7192ZM25.4135 37.7046H25.413C25.8966 37.3166 26.3068 36.857 26.6277 36.3447C27.1652 35.5967 27.7094 34.8553 28.2398 34.1073C28.365 33.9237 28.4164 33.6927 28.1736 33.577C27.9307 33.4612 27.8352 33.6856 27.732 33.8151C27.3937 34.2638 27.0769 34.7329 26.7309 35.175H26.7304C26.158 35.9429 25.7134 36.7867 25.4131 37.6775L25.4135 37.7046ZM27.6216 31.9586C26.716 33.3593 25.7369 34.5357 25.1923 36.0796C25.4423 35.9843 25.5604 35.971 25.6046 35.9165C26.2889 34.9782 26.9733 34.0329 27.6433 33.0809V33.0804C27.8882 32.7246 27.8646 32.2645 27.5842 31.9316L27.6216 31.9586ZM39.6186 29.8303H39.618C39.6042 30.6576 39.7207 31.482 39.9641 32.2783C40.1699 33.0942 40.2069 33.9442 40.4939 34.7534C40.8471 33.0562 40.5257 31.2984 39.5883 29.8028L39.6186 29.8303ZM29.6157 47.877H30.8519C31.22 47.877 31.4557 47.7547 31.4336 47.3671C31.4115 46.9796 31.1173 47.0066 30.8227 47.027C30.5285 47.0474 30.0864 47.0882 29.9981 47.5507L29.9987 47.5502C29.9781 47.6579 29.877 47.7357 29.7594 47.7357C29.6413 47.7357 29.5407 47.6579 29.5202 47.5502C29.3585 46.9924 28.9462 47.0266 28.497 47.0673C28.2249 47.0673 27.9743 47.1219 28.0113 47.4549V47.4554C28.0041 47.5886 28.0637 47.7177 28.173 47.8054C28.2819 47.8927 28.4287 47.9292 28.5704 47.9041C28.9164 47.8633 29.2696 47.877 29.6157 47.877V47.877ZM20.0475 46.8368C20.2683 47.4421 20.4742 47.8842 21.1811 47.9657V47.5645C21.1811 47.415 21.1811 47.2519 21.4019 47.2519V47.2514C21.5261 47.2666 21.6391 47.3249 21.7186 47.4146C21.7885 47.5085 21.8362 47.6147 21.8583 47.7272C21.9615 48.1759 22.3219 48.2167 22.7269 48.1896C22.9477 48.1896 23.2126 48.1896 23.2645 47.9515H23.2639C23.3225 47.7167 23.2172 47.4724 22.999 47.3396C22.8548 47.2803 22.7043 47.2343 22.5503 47.2035C21.7849 46.9587 20.9603 47.1357 20.0624 46.8364L20.0475 46.8368ZM26.7453 59.0768V59.1243C26.429 59.1243 26.1123 59.0697 25.796 59.0631C25.6122 59.0631 25.3766 59.0156 25.3175 59.24V59.2395C25.2154 59.4824 25.2154 59.7518 25.3175 59.9942C25.4428 60.1844 25.7221 60.1099 25.9433 60.1028C26.3407 60.1028 26.2154 59.7765 26.2673 59.5725C26.3186 59.3685 26.3556 59.2732 26.5322 59.2528L26.5317 59.2533C26.6277 59.2428 26.7242 59.2727 26.7935 59.3344C26.8633 59.396 26.8998 59.4838 26.8926 59.5725C26.8336 60.1303 27.2237 60.0691 27.6288 60.0895C28.1663 60.0895 28.1663 59.7973 28.2028 59.4776C28.2397 59.1579 27.9599 59.0697 27.6509 59.0763L26.7453 59.0768ZM26.5758 29.4701C25.8396 30.83 24.8975 32.0064 24.7652 33.5504L24.7657 33.5499C24.8293 33.5542 24.893 33.5542 24.9566 33.5499C25.5455 32.3669 26.2006 31.2176 26.8777 30.082C27.04 29.8026 26.8998 29.6191 26.5907 29.4355L26.5758 29.4701ZM25.1845 34.6925L25.1851 34.692C25.9382 33.6637 26.6143 32.5894 27.2088 31.4756C27.3043 31.2513 27.4367 31.0611 27.0763 30.7954V30.7959C26.2287 31.9808 25.5951 33.2852 25.1999 34.658L25.1845 34.6925ZM24.6398 31.9728C25.2215 30.8372 25.7806 29.7353 26.3325 28.634C26.4136 28.4642 26.4208 28.2602 26.2001 28.1919C25.9793 28.1241 25.9131 28.3413 25.8396 28.4912C25.317 29.5385 25.008 30.6674 24.3678 31.6806C24.3606 31.6934 24.4196 31.7888 24.6404 31.9178L24.6398 31.9728ZM30.3734 59.0028L30.3739 59.0018C30.0156 58.933 29.648 58.9169 29.2845 58.9544C28.9975 58.9544 28.7988 59.036 28.8132 59.3485C28.8281 59.6611 28.7619 59.9268 29.1885 60.0287C29.9396 60.1782 30.2338 59.9405 30.3883 58.9478L30.3734 59.0028ZM32.5815 58.8462L32.5821 58.8458C32.352 58.7452 32.0923 58.7215 31.8458 58.7774C31.6056 58.7756 31.3746 58.8619 31.2036 59.0175C31.0321 59.173 30.9351 59.3851 30.933 59.6071C30.913 59.6782 30.9289 59.7541 30.9762 59.8134C31.0229 59.8727 31.0963 59.9092 31.1759 59.913C32.0887 60.0221 32.5379 59.682 32.5892 58.7912L32.5815 58.8462ZM40.1772 46.2796L38.0574 46.6401L38.0579 46.6396C37.8962 46.6591 37.757 46.7544 37.6898 46.8915C37.6164 47.0214 37.6164 47.1761 37.6898 47.306C37.7653 47.4426 37.9378 47.5067 38.0943 47.4559C38.5877 47.3402 39.2058 47.4559 39.4337 46.8303C39.4851 46.6809 39.6694 46.6738 39.8311 46.6605C39.9933 46.6467 40.1699 46.5718 40.1771 46.2796L40.1772 46.2796ZM34.7897 58.5876C33.6417 58.5468 33.4724 58.5876 33.2659 59.1587C33.1114 59.5666 33.1997 59.689 33.6484 59.6961C34.3779 59.7165 34.5175 59.5804 34.7896 58.5876H34.7897ZM35.4006 59.4442C35.7317 59.3968 36.1368 59.356 36.4679 59.2948C36.6225 59.2948 36.7621 59.1724 36.74 58.9955C36.718 58.8186 36.777 58.5672 36.5783 58.4244C36.3493 58.3163 36.0808 58.3044 35.8416 58.3917C35.6024 58.479 35.415 58.6564 35.3272 58.8798C35.2512 59.0681 35.2784 59.2782 35.4006 59.4442L35.4006 59.4442ZM23.8236 47.2856C23.8898 48.2513 23.993 48.2988 25.3915 47.9658C25.0671 47.2111 25.0671 47.2111 23.8236 47.2856ZM25.9136 47.2856C26.1636 48.054 26.2375 48.1014 26.9809 48.0066C27.1724 48.0066 27.4003 47.9724 27.4224 47.7618C27.446 47.6451 27.4178 47.5251 27.3444 47.4279C27.271 47.3306 27.1585 47.2647 27.0322 47.2448C26.6621 47.1694 26.2765 47.1836 25.9136 47.2856L25.9136 47.2856ZM32.7802 46.8777C32.1764 46.8777 32.103 46.8777 32.044 47.231C31.9849 47.5844 32.2498 47.7073 32.6179 47.7001C33.2361 47.7001 33.4568 47.5778 33.4276 47.2377C33.3988 46.8981 33.0456 46.9052 32.7807 46.8777L32.7802 46.8777ZM34.7824 47.6394C35.0694 47.5716 35.5186 47.748 35.5186 47.2315C35.5186 46.7145 35.0842 46.8373 34.7824 46.8373C34.2597 46.8373 34.0462 47.0005 34.1052 47.3676C34.1643 47.7348 34.5246 47.5711 34.7824 47.6394ZM24.6403 59.6073C24.6403 59.2468 24.5006 59.0429 24.2137 59.0158C23.9267 58.9888 23.6541 59.1927 23.6469 59.5532C23.6397 59.9137 23.8897 60.0019 24.1916 60.0223C24.4929 60.0427 24.6403 59.825 24.6403 59.6073ZM40.3026 28.6673C40.7221 28.6673 41.0388 28.3955 41.0388 28.1299V28.1304C41.0352 28.053 40.9911 27.9824 40.9213 27.9406C40.8509 27.8984 40.7631 27.8908 40.6851 27.9193C40.2508 27.9738 39.9489 28.2115 39.9489 28.4633C39.9494 28.7152 40.1332 28.6744 40.3026 28.6673L40.3026 28.6673ZM37.1524 58.2679L37.5426 58.8462C37.6253 58.9747 37.7962 59.0292 37.9471 58.9752C38.1309 58.9206 38.1458 58.7712 38.1607 58.6284C38.1756 58.1389 38.0062 58.0706 37.1524 58.2679V58.2679ZM36.2031 47.5305C36.3664 47.5305 36.5292 47.5144 36.6888 47.4831C36.9907 47.4015 37.0051 47.1634 36.983 46.9253V46.9257C36.9753 46.8081 36.8675 46.7175 36.7401 46.7213C36.4532 46.7213 36.2468 46.7687 36.1954 47.0543C36.1739 47.1909 36.063 47.3133 36.2031 47.5305H36.2031ZM22.8894 35.1545C23.277 35.7099 23.7987 36.1757 24.4132 36.5144C24.0964 35.9091 23.427 35.5894 22.8894 35.1545ZM23.9049 31.9993C23.6344 31.3983 23.0989 30.933 22.4331 30.721C22.9706 31.1764 23.1693 31.7683 23.9049 31.9993ZM22.5285 38.2894C23.1985 39.0374 23.2647 39.0716 24.0003 39.1736L22.5285 38.2894ZM20.9314 33.7605C20.7327 33.2435 20.7327 33.2435 20.0042 32.9987C20.228 33.3099 20.535 33.5632 20.8949 33.7335L20.9314 33.7605ZM3.70895 25.104V25.1514H5.18082V25.104H3.70895ZM22.845 59.6747V59.6752C23.019 59.4228 23.0041 59.097 22.808 58.8588C22.6971 58.9736 22.6401 59.1249 22.6514 59.2786C22.6627 59.4318 22.7402 59.5751 22.867 59.6752L22.845 59.6747ZM3.11227 25.8046H3.0753H3.76735H3.11227ZM21.5714 26.3691V26.4369C21.5709 26.5806 21.6725 26.7077 21.8214 26.75C21.9025 26.75 22.0422 26.75 22.035 26.6954C22.0278 26.6409 21.9097 26.5118 21.8291 26.4303C21.8045 26.3895 21.7629 26.3601 21.7141 26.3487C21.6659 26.3373 21.614 26.3444 21.5714 26.3691V26.3691ZM41.5683 34.0395C41.5544 33.9337 41.4682 33.8483 41.3547 33.8284C41.2515 33.8284 41.2736 33.9508 41.2813 34.0257C41.2885 34.1007 41.2813 34.1955 41.4066 34.2026C41.5313 34.2093 41.5683 34.1552 41.5683 34.0395L41.5683 34.0395ZM21.5346 33.9579C21.4535 33.9579 21.3652 34.0124 21.3652 34.0328C21.3652 34.1618 21.4684 34.2164 21.5788 34.2506C21.6891 34.2847 21.7846 34.2913 21.7482 34.1756C21.7112 34.0599 21.5788 34.0395 21.5125 33.9645L21.5346 33.9579ZM21.5346 16.216C21.5346 16.1206 21.4833 16.039 21.3729 16.0324C21.3123 16.0357 21.2569 16.0661 21.2255 16.114C21.1886 16.2226 21.2769 16.2838 21.3801 16.2838C21.4833 16.2843 21.4684 16.2501 21.5202 16.2226L21.5346 16.216Z" fill="#C93216"/>
</svg>
