<svg width="85" height="85" viewBox="0 0 85 85" fill="none" xmlns="http://www.w3.org/2000/svg">
<g clip-path="url(#clip0_306_17)">
<path d="M13.5863 47.0281H46.9582V13.6052C46.9582 13.2031 47.1177 12.8173 47.4016 12.5329C47.6854 12.2486 48.0707 12.0889 48.4722 12.0889C58.1259 12.0889 67.3841 15.9297 74.2101 22.766C81.0359 29.6029 84.8708 38.8754 84.8708 48.5432C84.8708 58.2117 81.0359 67.4841 74.2101 74.3205C67.3836 81.1567 58.1252 84.9976 48.4722 84.9976C38.8184 84.9976 29.5602 81.1567 22.7343 74.3205C15.9085 67.4836 12.0735 58.211 12.0735 48.5432C12.0735 48.1411 12.233 47.7553 12.5169 47.471C12.8007 47.1867 13.186 47.0269 13.5875 47.0269L13.5863 47.0281ZM48.4722 81.9674C57.1919 81.9674 65.5647 78.5495 71.7998 72.4444C78.0356 66.3398 81.6373 58.0334 81.8347 49.3029C82.0328 40.5719 78.8107 32.1111 72.8589 25.7282C66.9064 19.3469 58.6962 15.552 49.9863 15.1553V48.5436C49.9863 48.9457 49.8268 49.3315 49.5429 49.6158C49.2591 49.9001 48.8738 50.0599 48.4723 50.0599H15.135C15.5352 58.6493 19.2207 66.7549 25.4274 72.6954C31.6348 78.636 39.8867 81.9558 48.473 81.9658L48.4722 81.9674Z" fill="#C93216"/>
<path d="M48.4722 81.9674C57.1919 81.9674 65.5647 78.5495 71.7998 72.4444C78.0356 66.3398 81.6373 58.0334 81.8347 49.3029C82.0328 40.5719 78.8107 32.1111 72.8589 25.7282C66.9064 19.3469 58.6962 15.552 49.9863 15.1553V48.5436C49.9863 48.9457 49.8268 49.3315 49.5429 49.6158C49.2591 49.9001 48.8738 50.0599 48.4723 50.0599H15.135C15.5352 58.6493 19.2207 66.7549 25.4274 72.6954C31.6348 78.636 39.8867 81.9558 48.473 81.9658L48.4722 81.9674Z" fill="#C93216"/>
<line x1="1" y1="-1" x2="10.1359" y2="-1" transform="matrix(0.647648 -0.761939 0.743022 0.669267 29.7878 37)" stroke="#C93216" stroke-width="2" stroke-linecap="round"/>
<line x1="1" y1="-1" x2="22.7473" y2="-1" transform="matrix(0.650791 -0.759257 0.74023 0.672354 21.5454 37)" stroke="#C93216" stroke-width="2" stroke-linecap="round"/>
<line x1="1" y1="-1" x2="36.8349" y2="-1" transform="matrix(0.653557 -0.756877 0.737754 0.675069 12.2727 37)" stroke="#C93216" stroke-width="2" stroke-linecap="round"/>
<line x1="1" y1="-1" x2="45.6945" y2="-1" transform="matrix(0.661944 -0.749554 0.730146 0.683291 3 37)" stroke="#C93216" stroke-width="2" stroke-linecap="round"/>
<line x1="1" y1="-1" x2="31.6067" y2="-1" transform="matrix(0.663556 -0.748127 0.728665 0.68487 3 28.5151)" stroke="#C93216" stroke-width="2" stroke-linecap="round"/>
<path d="M36.4865 0.0866432C36.888 0.0866432 37.2732 0.246398 37.5571 0.530705C37.841 0.815009 38.0005 1.20086 38.0005 1.60295V36.5422C38.0005 36.9443 37.841 37.3301 37.5571 37.6144C37.2732 37.8988 36.888 38.0585 36.4865 38.0585H1.60059C1.19911 38.0585 0.813847 37.8988 0.529976 37.6144C0.246105 37.3301 0.0865936 36.9443 0.0865936 36.5422C0.0974083 26.8772 3.93578 17.61 10.7597 10.7771C17.5835 3.94414 26.8357 0.0986005 36.4855 0.0876831L36.4865 0.0866432ZM34.9725 35.0259V3.15392C26.6576 3.54315 18.7869 7.02597 12.901 12.9205C7.01533 18.8159 3.53798 26.6987 3.14936 35.0257L34.9725 35.0259Z" fill="#C93216"/>
<path d="M34.9725 35.0259V3.15392C26.6576 3.54315 18.7869 7.02597 12.901 12.9205C7.01533 18.8159 3.53798 26.6987 3.14936 35.0257L34.9725 35.0259Z" fill="#C93216"/>
<line x1="1" y1="-1" x2="11.6031" y2="-1" transform="matrix(0.647715 -0.761883 0.743081 0.669201 33.6182 41.774)" stroke="#030D2B" stroke-width="2" stroke-linecap="round"/>
<line x1="1" y1="-1" x2="25.8763" y2="-1" transform="matrix(0.650857 -0.7592 0.740289 0.672289 24.2888 41.774)" stroke="#030D2B" stroke-width="2" stroke-linecap="round"/>
<line x1="1" y1="-1" x2="41.8201" y2="-1" transform="matrix(0.653623 -0.75682 0.737814 0.675005 13.7932 41.774)" stroke="#030D2B" stroke-width="2" stroke-linecap="round"/>
<line x1="1" y1="-1" x2="51.8471" y2="-1" transform="matrix(0.662009 -0.749496 0.730206 0.683227 3.29761 41.774)" stroke="#030D2B" stroke-width="2" stroke-linecap="round"/>
<line x1="1" y1="-1" x2="35.9031" y2="-1" transform="matrix(0.663621 -0.748069 0.728725 0.684806 3.29761 32.1719)" stroke="#030D2B" stroke-width="2" stroke-linecap="round"/>
<path d="M41.2002 -3.8147e-06C41.6546 -3.8147e-06 42.0907 0.180787 42.412 0.502531C42.7333 0.824271 42.9138 1.26093 42.9138 1.71597V41.2559C42.9138 41.7109 42.7333 42.1476 42.412 42.4693C42.0907 42.7911 41.6546 42.9719 41.2002 42.9719H1.71365C1.25923 42.9719 0.823162 42.7911 0.501858 42.4693C0.18055 42.1476 0 41.7109 0 41.2559C0.0122414 30.3182 4.3568 19.8308 12.0806 12.0981C19.8044 4.36543 30.2767 0.013528 41.199 0.00117295L41.2002 -3.8147e-06ZM39.4865 39.5399V3.47116C30.0751 3.91165 21.1665 7.85307 14.5044 14.5238C7.84246 21.1955 3.90654 30.1162 3.46667 39.5397L39.4865 39.5399Z" fill="#030D2B"/>
</g>
<defs>
<clipPath id="clip0_306_17">
<rect width="85" height="85" fill="white" transform="matrix(-1 0 0 1 85 0)"/>
</clipPath>
</defs>
</svg>
