<svg width="25" height="20" viewBox="0 0 25 20" fill="none" xmlns="http://www.w3.org/2000/svg">
<path fill-rule="evenodd" clip-rule="evenodd" d="M3.50348 0.460083H20.7073C21.4092 0.460083 21.9815 1.03239 21.9815 1.73431V12.5672L2.22907 12.5671V1.73458C2.22907 1.03284 2.80173 0.460083 3.50348 0.460083ZM24 18.9926L22.1143 13.3626H2.09547L0.209801 18.9926C0.0431402 19.4903 0.409972 20 0.934841 20C0.934841 20 6.89975 20 8.62837 20C9.35296 20 9.96477 18.2969 9.96477 18.2969C10.045 18.1106 10.2187 17.9969 10.4214 17.9969H13.7884C13.9913 17.9969 14.1644 18.1106 14.245 18.2969C14.245 18.2969 14.7754 20 15.5 20C17.0188 20 23.275 20 23.275 20C23.7994 20 24.1668 19.4905 24 18.9926ZM10.0961 20C10.0961 20 10.1301 18.9541 10.6178 18.7925C11.5 18.5 12.5765 18.4601 13.5928 18.7925C14.0811 18.9521 14.1145 20 14.1145 20H10.0961ZM3.42672 14.7036C3.20715 14.7036 3.02885 14.5257 3.02885 14.3058C3.02885 14.0862 3.2068 13.9079 3.42672 13.9079H4.15316C4.37273 13.9079 4.55103 14.0858 4.55103 14.3058C4.55103 14.5253 4.37309 14.7036 4.15316 14.7036H3.42672ZM5.80266 14.7036C5.58309 14.7036 5.40479 14.5257 5.40479 14.3058C5.40479 14.0862 5.58274 13.9079 5.80266 13.9079H6.5291C6.74867 13.9079 6.92697 14.0858 6.92697 14.3058C6.92697 14.5253 6.74903 14.7036 6.5291 14.7036H5.80266ZM8.17842 14.7036C7.95885 14.7036 7.78055 14.5257 7.78055 14.3058C7.78055 14.0862 7.9585 13.9079 8.17842 13.9079H8.90486C9.12443 13.9079 9.30273 14.0858 9.30273 14.3058C9.30273 14.5253 9.12479 14.7036 8.90486 14.7036H8.17842ZM10.554 14.7036C10.3344 14.7036 10.1561 14.5257 10.1561 14.3058C10.1561 14.0862 10.3341 13.9079 10.554 13.9079H11.2804C11.5 13.9079 11.6783 14.0858 11.6783 14.3058C11.6783 14.5253 11.5004 14.7036 11.2804 14.7036H10.554ZM12.9298 14.7036C12.7102 14.7036 12.5319 14.5257 12.5319 14.3058C12.5319 14.0862 12.7098 13.9079 12.9298 13.9079H13.6562C13.8758 13.9079 14.0541 14.0858 14.0541 14.3058C14.0541 14.5253 13.8761 14.7036 13.6562 14.7036H12.9298ZM15.3055 14.7036C15.086 14.7036 14.9077 14.5257 14.9077 14.3058C14.9077 14.0862 15.0856 13.9079 15.3055 13.9079H16.032C16.2515 13.9079 16.4298 14.0858 16.4298 14.3058C16.4298 14.5253 16.2519 14.7036 16.032 14.7036H15.3055ZM17.6811 14.7036C17.4615 14.7036 17.2832 14.5257 17.2832 14.3058C17.2832 14.0862 17.4612 13.9079 17.6811 13.9079H18.4075C18.6271 13.9079 18.8054 14.0858 18.8054 14.3058C18.8054 14.5253 18.6275 14.7036 18.4075 14.7036H17.6811ZM20.057 14.7036C19.8375 14.7036 19.6592 14.5257 19.6592 14.3058C19.6592 14.0862 19.8371 13.9079 20.057 13.9079H20.7835C21.0031 13.9079 21.1814 14.0858 21.1814 14.3058C21.1814 14.5253 21.0034 14.7036 20.7835 14.7036H20.057ZM3.10423 15.9396C2.88466 15.9396 2.70636 15.7616 2.70636 15.5417C2.70636 15.3221 2.8843 15.1438 3.10423 15.1438H3.83067C4.05024 15.1438 4.22854 15.3218 4.22854 15.5417C4.22854 15.7613 4.05059 15.9396 3.83067 15.9396H3.10423ZM5.57186 15.9396C5.35229 15.9396 5.17399 15.7616 5.17399 15.5417C5.17399 15.3221 5.35194 15.1438 5.57186 15.1438H6.2983C6.51787 15.1438 6.69618 15.3218 6.69618 15.5417C6.69618 15.7613 6.51823 15.9396 6.2983 15.9396H5.57186ZM8.03932 15.9396C7.81975 15.9396 7.64145 15.7616 7.64145 15.5417C7.64145 15.3221 7.8194 15.1438 8.03932 15.1438H8.76576C8.98533 15.1438 9.16363 15.3218 9.16363 15.5417C9.16363 15.7613 8.98568 15.9396 8.76576 15.9396H8.03932ZM10.5068 15.9396C10.2872 15.9396 10.1089 15.7616 10.1089 15.5417C10.1089 15.3221 10.2869 15.1438 10.5068 15.1438H11.2332C11.4528 15.1438 11.6311 15.3218 11.6311 15.5417C11.6311 15.7613 11.4531 15.9396 11.2332 15.9396H10.5068ZM12.9744 15.9396C12.7548 15.9396 12.5765 15.7616 12.5765 15.5417C12.5765 15.3221 12.7545 15.1438 12.9744 15.1438H13.7009C13.9204 15.1438 14.0987 15.3218 14.0987 15.5417C14.0987 15.7613 13.9208 15.9396 13.7009 15.9396H12.9744ZM15.4421 15.9396C15.2225 15.9396 15.0442 15.7616 15.0442 15.5417C15.0442 15.3221 15.2221 15.1438 15.4421 15.1438H16.1685C16.3881 15.1438 16.5664 15.3218 16.5664 15.5417C16.5664 15.7613 16.3884 15.9396 16.1685 15.9396H15.4421ZM17.9095 15.9396C17.6899 15.9396 17.5116 15.7616 17.5116 15.5417C17.5116 15.3221 17.6896 15.1438 17.9095 15.1438H18.6359C18.8555 15.1438 19.0338 15.3218 19.0338 15.5417C19.0338 15.7613 18.8559 15.9396 18.6359 15.9396H17.9095ZM20.377 15.9396C20.1574 15.9396 19.9791 15.7616 19.9791 15.5417C19.9791 15.3221 20.157 15.1438 20.377 15.1438H21.1034C21.323 15.1438 21.5013 15.3218 21.5013 15.5417C21.5013 15.7613 21.3233 15.9396 21.1034 15.9396H20.377ZM2.78304 17.1755C2.56347 17.1755 2.38517 16.9976 2.38517 16.7776C2.38517 16.5581 2.56312 16.3798 2.78304 16.3798H3.50948C3.72905 16.3798 3.90735 16.5577 3.90735 16.7776C3.90735 16.9972 3.7294 17.1755 3.50948 17.1755H2.78304ZM5.34256 17.1755C5.12298 17.1755 4.94468 16.9976 4.94468 16.7776C4.94468 16.5581 5.12263 16.3798 5.34256 16.3798H6.06899C6.28857 16.3798 6.46687 16.5577 6.46687 16.7776C6.46687 16.9972 6.28892 17.1755 6.06899 17.1755H5.34256ZM7.90193 17.1755C7.68236 17.1755 7.50406 16.9976 7.50406 16.7776C7.50406 16.5581 7.68201 16.3798 7.90193 16.3798H8.62837C8.84794 16.3798 9.02625 16.5577 9.02625 16.7776C9.02625 16.9972 8.8483 17.1755 8.62837 17.1755H7.90193ZM10.4613 17.1755C10.2417 17.1755 10.0634 16.9976 10.0634 16.7776C10.0634 16.5581 10.2414 16.3798 10.4613 16.3798H11.1878C11.4073 16.3798 11.5856 16.5577 11.5856 16.7776C11.5856 16.9972 11.4077 17.1755 11.1878 17.1755H10.4613ZM13.021 17.1755C12.8014 17.1755 12.6231 16.9976 12.6231 16.7776C12.6231 16.5581 12.8011 16.3798 13.021 16.3798H13.7474C13.967 16.3798 14.1453 16.5577 14.1453 16.7776C14.1453 16.9972 13.9674 17.1755 13.7474 17.1755H13.021ZM15.5804 17.1755C15.3608 17.1755 15.1825 16.9976 15.1825 16.7776C15.1825 16.5581 15.3605 16.3798 15.5804 16.3798H16.3068C16.5264 16.3798 16.7047 16.5577 16.7047 16.7776C16.7047 16.9972 16.5267 17.1755 16.3068 17.1755H15.5804ZM18.1398 17.1755C17.9202 17.1755 17.7419 16.9976 17.7419 16.7776C17.7419 16.5581 17.9198 16.3798 18.1398 16.3798H18.8662C19.0858 16.3798 19.2641 16.5577 19.2641 16.7776C19.2641 16.9972 19.0861 17.1755 18.8662 17.1755H18.1398ZM20.6991 17.1755C20.4796 17.1755 20.3013 16.9976 20.3013 16.7776C20.3013 16.5581 20.4792 16.3798 20.6991 16.3798H21.4256C21.6452 16.3798 21.8235 16.5577 21.8235 16.7776C21.8235 16.9972 21.6455 17.1755 21.4256 17.1755H20.6991ZM3.55445 2.80428V10.6199C3.55445 11.1815 4.01248 11.6391 4.57363 11.6391H19.637C20.1985 11.6391 20.6562 11.1811 20.6562 10.6199L20.6563 2.80428C20.6563 2.24273 20.1983 1.7851 19.6372 1.7851H4.57381C4.01243 1.7851 3.55445 2.24313 3.55445 2.80428Z" fill="#C93216"/>
</svg>
