<svg width="20" height="20" viewBox="0 0 20 20" fill="none" xmlns="http://www.w3.org/2000/svg">
<path fill-rule="evenodd" clip-rule="evenodd" d="M18.0403 9.96962C18.0403 5.51511 14.4243 1.89904 9.9697 1.89904C5.5152 1.89904 1.89913 5.51511 1.89913 9.96962C1.89913 14.4241 5.5152 18.0402 9.9697 18.0402C14.4242 18.0402 18.0403 14.4241 18.0403 9.96962ZM9.13635 9.96962V4.38984C9.13635 4.12773 9.55302 3.58984 9.96969 3.58984C10.3864 3.58984 10.803 4.01061 10.803 4.27273V9.98984L13.7197 13.1898C13.9049 13.375 13.9049 13.9182 13.7197 14.1033C13.5345 14.2885 12.7839 14.2885 12.5987 14.1033L9.13635 10.3898C9.07585 10.3296 9.09745 10.2155 9.11759 10.1091C9.12713 10.0587 9.13635 10.01 9.13635 9.96962Z" fill="#C93216"/>
</svg>
